<svg width="26" height="24" viewBox="0 0 26 24" fill="none" xmlns="http://www.w3.org/2000/svg">
<path fill-rule="evenodd" clip-rule="evenodd" d="M24.0849 10.5491C24.9815 10.5491 25.3558 9.39711 24.6275 8.86609L13.5456 0.804924C13.2208 0.566978 12.7793 0.566978 12.4545 0.804924L1.37258 8.86609C0.644231 9.39421 1.01856 10.5491 1.91811 10.5491H3.71432V21.4018H1.62503C1.49736 21.4018 1.39289 21.5063 1.39289 21.6339V23.1429C1.39289 23.2705 1.49736 23.375 1.62503 23.375H24.375C24.5027 23.375 24.6072 23.2705 24.6072 23.1429V21.6339C24.6072 21.5063 24.5027 21.4018 24.375 21.4018H22.2857V10.5491H24.0849ZM13 2.85068L20.8668 8.573H5.13329L13 2.85068ZM9.1987 10.5491H5.80361V21.4018H9.1987V10.5491ZM11.288 10.5491H14.6831V21.4018H11.288V10.5491ZM16.7724 21.4018H20.1965V10.5491H16.7724V21.4018Z" fill="#4F62C0"/>
</svg>
