<svg width="182" height="182" viewBox="0 0 182 182" fill="none" xmlns="http://www.w3.org/2000/svg">
<path fill-rule="evenodd" clip-rule="evenodd" d="M178.5 61C176.568 61 175 62.568 175 64.5C175 66.432 176.568 68 178.5 68C180.432 68 182 66.432 182 64.5C182 62.568 180.432 61 178.5 61Z" fill="#A5E8F0"/>
<path fill-rule="evenodd" clip-rule="evenodd" d="M162.976 19.0239C161.608 17.6587 159.392 17.6587 158.026 19.0239C156.658 20.3925 156.658 22.6083 158.026 23.9735C159.392 25.3422 161.608 25.3422 162.976 23.9735C164.341 22.6083 164.341 20.3925 162.976 19.0239Z" fill="#A5E8F0"/>
<path fill-rule="evenodd" clip-rule="evenodd" d="M162.976 104.026C161.608 102.658 159.392 102.658 158.026 104.026C156.658 105.391 156.658 107.607 158.026 108.976C159.392 110.341 161.608 110.341 162.976 108.976C164.341 107.607 164.341 105.391 162.976 104.026Z" fill="#A5E8F0"/>
<path fill-rule="evenodd" clip-rule="evenodd" d="M117.5 0C115.568 0 114 1.568 114 3.5C114 5.432 115.568 7 117.5 7C119.432 7 121 5.432 121 3.5C121 1.568 119.432 0 117.5 0Z" fill="#A5E8F0"/>
<path fill-rule="evenodd" clip-rule="evenodd" d="M117.5 121C115.568 121 114 122.568 114 124.5C114 126.432 115.568 128 117.5 128C119.432 128 121 126.432 121 124.5C121 122.568 119.432 121 117.5 121Z" fill="#A5E8F0"/>
<path fill-rule="evenodd" clip-rule="evenodd" d="M77.9735 19.0239C76.6083 17.6587 74.3925 17.6587 73.0239 19.0239C71.6587 20.3925 71.6587 22.6083 73.0239 23.9735C74.3925 25.3422 76.6083 25.3422 77.9735 23.9735C79.3422 22.6083 79.3422 20.3925 77.9735 19.0239Z" fill="#A5E8F0"/>
<path fill-rule="evenodd" clip-rule="evenodd" d="M57.5 61C55.568 61 54 62.568 54 64.5C54 66.432 55.568 68 57.5 68C59.432 68 61 66.432 61 64.5C61 62.568 59.432 61 57.5 61Z" fill="#A5E8F0"/>
<mask id="mask0_0_35" style="mask-type:luminance" maskUnits="userSpaceOnUse" x="0" y="45" width="137" height="137">
<path fill-rule="evenodd" clip-rule="evenodd" d="M0 45.0156H136.91V182H0V45.0156Z" fill="white"/>
</mask>
<g mask="url(#mask0_0_35)">
<path fill-rule="evenodd" clip-rule="evenodd" d="M128.767 63.1516L97.0694 94.8921L87.029 84.878L118.732 53.1329C119.402 52.4646 120.294 52.0964 121.243 52.0964C122.192 52.0964 123.083 52.4646 123.753 53.1329L128.772 58.1389C129.442 58.8076 129.812 59.6969 129.812 60.6431C129.812 61.5894 129.442 62.4779 128.767 63.1516ZM18.1744 173.883C17.5039 174.551 16.6131 174.92 15.6654 174.92C14.7178 174.92 13.8269 174.551 13.1568 173.883L8.13825 168.877C7.4678 168.209 7.09832 167.32 7.09832 166.375C7.09832 165.43 7.4678 164.541 8.14286 163.868L82.0189 89.8935L92.0589 99.9076L18.1744 173.883ZM133.791 53.1319L128.773 48.1262C126.762 46.1204 124.087 45.0156 121.242 45.0156C118.397 45.0156 115.723 46.1204 113.707 48.1308L80.0668 81.8162C79.8425 81.9564 79.6292 82.1206 79.4343 82.3157C79.2384 82.5118 79.073 82.7263 78.9328 82.9518L3.11893 158.866C1.10759 160.872 -0.00012207 163.539 -0.00012207 166.375C-0.00012207 169.211 1.10759 171.878 3.11858 173.884L8.13718 178.889C10.1482 180.895 12.8214 182 15.6654 182C18.5094 182 21.1831 180.895 23.199 178.884L99.5886 102.402L133.791 68.153C135.802 66.1472 136.91 63.4798 136.91 60.6424C136.91 57.8051 135.802 55.1376 133.791 53.1319Z" fill="#4F62C0"/>
</g>
<path fill-rule="evenodd" clip-rule="evenodd" d="M117.5 14C115.567 14 114 15.5669 114 17.5V31.5C114 33.4331 115.567 35 117.5 35C119.432 35 121 33.4331 121 31.5V17.5C121 15.5669 119.432 14 117.5 14Z" fill="#A5E8F0"/>
<path fill-rule="evenodd" clip-rule="evenodd" d="M117.5 93C115.567 93 114 94.5669 114 96.5V110.5C114 112.433 115.567 114 117.5 114C119.432 114 121 112.433 121 110.5V96.5C121 94.5669 119.433 93 117.5 93Z" fill="#A5E8F0"/>
<path fill-rule="evenodd" clip-rule="evenodd" d="M97.9688 38.9891L88.0111 29.0313C86.6358 27.6562 84.4069 27.6562 83.0312 29.0313C81.6563 30.4063 81.6563 32.6359 83.0312 34.0109L92.9892 43.9687C93.6773 44.6563 94.578 45 95.4794 45C96.38 45 97.2811 44.656 97.9688 43.9687C99.3437 42.5936 99.3437 40.3641 97.9688 38.9891Z" fill="#A5E8F0"/>
<path fill-rule="evenodd" clip-rule="evenodd" d="M152.969 93.9891L143.011 84.0313C141.636 82.6562 139.407 82.6562 138.031 84.0313C136.656 85.4063 136.656 87.6362 138.031 89.0109L147.989 98.969C148.677 99.6567 149.578 100 150.479 100C151.38 100 152.281 99.6563 152.969 98.969C154.344 97.5936 154.344 95.3641 152.969 93.9891Z" fill="#A5E8F0"/>
<path fill-rule="evenodd" clip-rule="evenodd" d="M152.969 29.0313C151.594 27.6562 149.365 27.6562 147.989 29.0313L138.031 38.9891C136.656 40.3641 136.656 42.5936 138.031 43.9687C138.719 44.6563 139.62 45 140.521 45C141.422 45 142.324 44.656 143.011 43.9687L152.969 34.0109C154.344 32.6359 154.344 30.4063 152.969 29.0313Z" fill="#A5E8F0"/>
<path fill-rule="evenodd" clip-rule="evenodd" d="M85.5 61H71.5C69.5673 61 68 62.5669 68 64.5C68 66.4331 69.5673 68 71.5 68H85.5C87.4327 68 89 66.4331 89 64.5C89 62.5669 87.4327 61 85.5 61Z" fill="#A5E8F0"/>
<path fill-rule="evenodd" clip-rule="evenodd" d="M164.5 61H150.5C148.567 61 147 62.5669 147 64.5C147 66.4331 148.567 68 150.5 68H164.5C166.432 68 168 66.4331 168 64.5C168 62.5669 166.433 61 164.5 61Z" fill="#A5E8F0"/>
</svg>
