<svg width="130" height="172" viewBox="0 0 130 172" fill="none" xmlns="http://www.w3.org/2000/svg">
<path fill-rule="evenodd" clip-rule="evenodd" d="M65.5 99.2859C69.4965 99.2859 72.7498 102.555 72.7498 106.571C72.7498 109.364 71.1709 111.865 68.6293 113.103C67.2451 113.779 66.4346 115.252 66.6045 116.785L68.7003 135.714H62.3001L64.3959 116.785C64.5658 115.251 63.7553 113.779 62.3711 113.103C59.8294 111.865 58.2505 109.364 58.2505 106.571C58.2502 102.555 61.5035 99.2859 65.5 99.2859ZM56.9333 118.29L54.6465 138.955C54.5333 139.983 54.8623 141.015 55.5491 141.787C56.2359 142.559 57.2201 143 58.2502 143H72.7502C73.7802 143 74.7644 142.559 75.4512 141.787C76.138 141.015 76.4674 139.983 76.3538 138.955L74.0671 118.29C77.7805 115.576 80 111.282 80 106.571C80 98.5353 73.4971 92 65.5 92C57.5029 92 51 98.5353 51 106.571C51 111.282 53.2198 115.576 56.9333 118.29Z" fill="#4F62C0"/>
<mask id="mask0_0_61" style="mask-type:luminance" maskUnits="userSpaceOnUse" x="0" y="0" width="130" height="172">
<path fill-rule="evenodd" clip-rule="evenodd" d="M0 0H130V172H0V0Z" fill="white"/>
</mask>
<g mask="url(#mask0_0_61)">
<path fill-rule="evenodd" clip-rule="evenodd" d="M122.778 157.667C122.778 161.617 119.537 164.833 115.556 164.833H14.4446C10.4633 164.833 7.22245 161.617 7.22245 157.667V71.6666H122.778V157.667ZM93.8888 50.1666V64.5H36.1112V50.1666C36.1112 34.36 49.0709 21.5 65 21.5C80.9291 21.5 93.8888 34.36 93.8888 50.1666ZM21.6667 50.1666C21.6667 26.4551 41.1047 7.16655 65 7.16655C88.8953 7.16655 108.333 26.4551 108.333 50.1666V64.5H101.111V50.1666C101.111 30.4091 84.9106 14.3331 65 14.3331C45.0893 14.3331 28.8888 30.4094 28.8888 50.1666V64.5H21.6667V50.1666ZM126.389 64.5H115.555V50.1666C115.555 22.5045 92.8769 0 65 0C37.1231 0 14.4446 22.5045 14.4446 50.1666V64.5H3.61122C1.61518 64.5 0 66.1028 0 68.0834V157.667C0 165.572 6.47799 172 14.4446 172H115.556C123.522 172 130 165.572 130 157.667V68.0834C130 66.1028 128.385 64.5 126.389 64.5Z" fill="#A5E8F0"/>
</g>
</svg>
