<svg width="22" height="22" viewBox="0 0 22 22" fill="none" xmlns="http://www.w3.org/2000/svg">
<path d="M18 7.5C19.933 7.5 21.5 5.933 21.5 4C21.5 2.067 19.933 0.5 18 0.5C16.067 0.5 14.5 2.067 14.5 4C14.5 5.933 16.067 7.5 18 7.5Z" fill="#4F62C0"/>
<path d="M18 19.1666H2.83333V3.99996H12.1667C12.1667 3.16929 12.3452 2.38179 12.659 1.66663H2.83333C1.5465 1.66663 0.5 2.71313 0.5 3.99996V19.1666C0.5 20.4535 1.5465 21.5 2.83333 21.5H18C19.2868 21.5 20.3333 20.4535 20.3333 19.1666V9.34096C19.5982 9.66523 18.8035 9.83289 18 9.83329V19.1666Z" fill="#4F62C0"/>
</svg>
