<svg width="28" height="28" viewBox="0 0 28 28" fill="none" xmlns="http://www.w3.org/2000/svg">
<path fill-rule="evenodd" clip-rule="evenodd" d="M26.7273 0H1.27273C0.569819 0 0 0.626801 0 1.4V12.6C0 13.3732 0.569819 14 1.27273 14H5.09091V26.6C5.09091 27.3732 5.66073 28 6.36364 28H21.6364C22.3393 28 22.9091 27.3732 22.9091 26.6V14H26.7273C27.4302 14 28 13.3732 28 12.6V1.4C28 0.626801 27.4302 0 26.7273 0ZM7.63636 25.2V22.4C9.04218 22.4 10.1818 23.6536 10.1818 25.2H7.63636ZM17.8182 25.2H20.3636V22.4C18.9578 22.4 17.8182 23.6536 17.8182 25.2ZM20.3636 19.6C17.552 19.6 15.2727 22.1072 15.2727 25.2H12.7273C12.7273 22.1072 10.448 19.6 7.63636 19.6V8.4H20.3636V19.6ZM22.9091 11.2H25.4545V2.8H2.54545V11.2H5.09091V7C5.09091 6.2268 5.66073 5.6 6.36364 5.6H21.6364C22.3393 5.6 22.9091 6.2268 22.9091 7V11.2ZM14 18.2C16.1087 18.2 17.8182 16.3196 17.8182 14C17.8182 11.6804 16.1087 9.8 14 9.8C11.8913 9.8 10.1818 11.6804 10.1818 14C10.1818 16.3196 11.8913 18.2 14 18.2ZM15.2727 14C15.2727 13.2268 14.7029 12.6 14 12.6C13.2971 12.6 12.7273 13.2268 12.7273 14C12.7273 14.7732 13.2971 15.4 14 15.4C14.7029 15.4 15.2727 14.7732 15.2727 14Z" fill="#4F62C0"/>
</svg>
