<svg width="28" height="28" viewBox="0 0 28 28" fill="none" xmlns="http://www.w3.org/2000/svg">
<path d="M14 28L10.5 22.75H12.25V19.25H15.75V22.75H17.5L14 28Z" fill="#4F62C0"/>
<path fill-rule="evenodd" clip-rule="evenodd" d="M0 0H28V17.5H0V0ZM26.25 15.75V1.75H1.75V15.75H26.25Z" fill="#4F62C0"/>
<path d="M14 3.5C16.8995 3.5 19.25 5.85051 19.25 8.75C19.25 11.6495 16.8995 14 14 14H22.75V12.25H24.5V5.25H22.75V3.5H14Z" fill="#4F62C0"/>
<path d="M8.75 8.75C8.75 5.85051 11.1005 3.5 14 3.5H5.25V5.25H3.5V12.25H5.25V14H14C11.1005 14 8.75 11.6495 8.75 8.75Z" fill="#4F62C0"/>
</svg>
