<svg width="24" height="20" viewBox="0 0 24 20" fill="none" xmlns="http://www.w3.org/2000/svg">
<path d="M10.894 12.8457H6.93844C6.70436 12.8457 6.5148 13.0353 6.5148 13.2693V19.4109C6.5148 19.6449 6.70436 19.8345 6.93844 19.8345H10.894C11.1281 19.8345 11.3174 19.6449 11.3174 19.4109V13.2691C11.3174 13.035 11.1278 12.8457 10.894 12.8457Z" fill="#4F62C0"/>
<path d="M17.0616 0.165771H13.106C12.8719 0.165771 12.6824 0.355331 12.6824 0.589411V19.4105C12.6824 19.6445 12.8719 19.8341 13.106 19.8341H17.0616C17.2956 19.8341 17.4852 19.6445 17.4852 19.4105V0.589411C17.4852 0.355331 17.2956 0.165771 17.0616 0.165771Z" fill="#4F62C0"/>
<path d="M23.2608 5.88379H19.3052C19.0711 5.88379 18.8816 6.07335 18.8816 6.30743V19.4106C18.8816 19.6447 19.0711 19.8342 19.3052 19.8342H23.2605C23.4946 19.8342 23.6841 19.6447 23.6841 19.4106V6.30743C23.6841 6.07363 23.4946 5.88379 23.2608 5.88379Z" fill="#4F62C0"/>
<path d="M4.6948 5.88379H0.739238C0.505158 5.88379 0.315598 6.07335 0.315598 6.30743V19.4106C0.315598 19.6447 0.505158 19.8342 0.739238 19.8342H4.6948C4.92888 19.8342 5.11844 19.6447 5.11844 19.4106V6.30743C5.11844 6.07363 4.92888 5.88379 4.6948 5.88379Z" fill="#4F62C0"/>
</svg>
