<svg width="28" height="28" viewBox="0 0 28 28" fill="none" xmlns="http://www.w3.org/2000/svg">
<path fill-rule="evenodd" clip-rule="evenodd" d="M18.9994 14.4807L12.1576 9.61333L2.3464 26.7244C2.11237 27.1325 1.70666 27.379 1.2712 27.3778C0.807282 27.3813 0.378875 27.1023 0.155084 26.6507C-0.0687072 26.1992 -0.0519257 25.6477 0.198805 25.214L10.6946 6.90977C10.8766 6.59316 11.164 6.36946 11.494 6.28755C11.8252 6.2072 12.1716 6.276 12.4572 6.47888L19.3396 11.3742L25.6788 1.23044C26.0793 0.588912 26.8717 0.428836 27.4498 0.872659C27.7278 1.08389 27.9183 1.40974 27.979 1.77779C28.0398 2.14584 27.9657 2.5256 27.7732 2.83266L20.7354 14.098C20.3426 14.722 19.5768 14.8908 18.9994 14.4807ZM0.966005 16.0704L2.8742 16.5962L4.3106 14.0902L1.5806 13.3404C0.902123 13.1519 0.214522 13.6101 0.0448047 14.364C-0.124912 15.1179 0.287523 15.8819 0.966005 16.0704ZM25.8734 16.4764L19.6252 22.7235L12.2794 16.4064C12.1392 16.2867 11.978 16.2008 11.8062 16.1544L10.829 15.8838L9.3912 18.3898L10.9312 18.8144L18.907 25.6713C19.3955 26.0891 20.0826 26.061 20.5422 25.6044L27.5814 18.5624C27.8317 18.3131 27.982 17.963 27.9989 17.59C28.0157 17.2169 27.8977 16.8519 27.671 16.576C27.1983 15.9994 26.3954 15.9549 25.8734 16.4764Z" fill="#4F62C0"/>
</svg>
