<svg width="20" height="26" viewBox="0 0 20 26" fill="none" xmlns="http://www.w3.org/2000/svg">
<path fill-rule="evenodd" clip-rule="evenodd" d="M10 0.050293C5.47172 0.050293 1.80005 3.49367 1.80005 7.74142C1.80005 8.83829 2.05005 9.88154 2.49005 10.8257L10.14 22.7223L17.51 10.8257C17.9633 9.85754 18.1975 8.80563 18.1967 7.74142C18.1967 3.49367 14.5284 0.050293 10 0.050293ZM10 13.1965C8.63332 13.1944 7.32351 12.6626 6.35912 11.7184C5.39472 10.7741 4.85484 9.49486 4.85838 8.16229C4.85573 6.83014 5.39595 5.55153 6.3602 4.60773C7.32445 3.66392 8.63374 3.13225 10 3.12967C12.8451 3.13594 15.1471 5.38834 15.1434 8.16229C15.148 10.9369 12.8458 13.1903 10 13.1965ZM13.295 8.09729C13.2968 8.95134 12.9504 9.77107 12.3321 10.376C11.7138 10.981 10.8743 11.3216 9.99838 11.3229C8.1753 11.3184 6.70062 9.8748 6.70338 8.09729C6.70205 7.24396 7.04846 6.42506 7.66639 5.82075C8.28433 5.21644 9.12317 4.87621 9.99838 4.87492C11.8184 4.87492 13.295 6.31954 13.295 8.09729Z" fill="#4F62C0"/>
<path fill-rule="evenodd" clip-rule="evenodd" d="M5.49828 19.2124C2.63661 19.8039 1.44828 20.5806 1.44828 21.4532C1.44828 22.7029 4.49995 24.4254 9.97495 24.4254C15.4499 24.4254 18.5016 22.7029 18.5016 21.4532C18.5016 20.5839 17.3216 19.8299 14.4999 19.2124V17.8799C17.6083 18.4746 19.9233 19.669 19.9233 21.4532C19.9233 24.0272 14.7966 25.9545 9.97495 25.9545C5.15328 25.9545 0.0266113 24.0272 0.0266113 21.4532C0.0266113 19.6657 2.35661 18.4486 5.48161 17.875L5.49828 19.2124Z" fill="#4F62C0"/>
</svg>
