<svg width="56" height="44" viewBox="0 0 56 44" fill="none" xmlns="http://www.w3.org/2000/svg">
<path fill-rule="evenodd" clip-rule="evenodd" d="M52.5144 40.8482V36.812H51.5252V39.1586C51.1954 38.7362 50.7243 38.5016 50.1119 38.5016C48.84 38.5016 47.8507 39.4871 47.8507 40.8482C47.8507 42.2092 48.84 43.1948 50.1119 43.1948C50.7714 43.1948 51.2425 42.9601 51.5252 42.5377V43.1009H52.5144V40.8482ZM23.307 38.5954H24.9087V39.4871H23.307V41.5052C23.307 41.9745 23.4955 42.2561 23.9666 42.2561C24.2021 42.2561 24.5319 42.2092 24.8145 42.0215L25.0972 42.8663C24.7674 43.054 24.2963 43.1948 23.8723 43.1948C22.7417 43.1948 22.3178 42.5847 22.3178 41.5522V39.4871H21.4227V38.5954H22.3178V37.2344H23.307V38.5954ZM10.258 40.285V43.1009H9.17446V40.6135C9.17446 39.8626 8.8447 39.4402 8.18517 39.4402C7.57275 39.4402 7.10166 39.8157 7.10166 40.6135V43.1009H6.11238V40.6135C6.11238 39.8626 5.78261 39.4402 5.12309 39.4402C4.46356 39.4402 4.03958 39.8157 4.03958 40.6135V43.1009H3.05029V38.5954H4.03958V39.1586C4.41645 38.6424 4.88754 38.5016 5.35863 38.5016C6.06527 38.5016 6.53636 38.7831 6.86612 39.2994C7.2901 38.6893 7.90252 38.5016 8.46782 38.5016C9.59844 38.5016 10.258 39.2055 10.258 40.285ZM33.2941 38.5016C32.7288 38.5016 32.3519 38.7831 32.1164 39.1586V38.5954H31.1271V43.1009H32.1164V40.5666C32.1164 39.8157 32.4461 39.3933 33.0586 39.3933C33.247 39.3933 33.4825 39.4402 33.671 39.4871L33.9536 38.5485C33.7652 38.5016 33.4825 38.5016 33.2941 38.5016ZM18.7846 38.5016C19.4912 38.5016 20.1508 38.6424 20.6218 38.9709L20.1979 39.7687C19.9152 39.6279 19.3499 39.3933 18.7846 39.3933C18.2664 39.3933 17.9367 39.581 17.9367 39.9095C17.9367 40.1911 18.2664 40.285 18.6904 40.3319L19.1615 40.3788C20.1037 40.5196 20.7161 40.942 20.7161 41.7399C20.7161 42.5847 19.9623 43.1948 18.6433 43.1948C17.9367 43.1948 17.23 43.007 16.7119 42.6316L17.1829 41.8807C17.5127 42.1153 18.0309 42.35 18.6904 42.35C19.3499 42.35 19.7268 42.1153 19.7268 41.7868C19.7268 41.5522 19.4441 41.4114 18.9259 41.3175L18.4549 41.2706C17.4656 41.1298 16.9003 40.7074 16.9003 39.9565C16.9003 39.0647 17.654 38.5016 18.7846 38.5016ZM46.9085 38.5016C46.3432 38.5016 45.9663 38.7831 45.7308 39.1586V38.5954H44.7415V43.1009H45.7308V40.5666C45.7308 39.8157 46.0605 39.3933 46.673 39.3933C46.8614 39.3933 47.0969 39.4402 47.2854 39.4871L47.568 38.5485C47.3796 38.5016 47.0969 38.5016 46.9085 38.5016ZM36.6859 43.1948C35.2256 43.1948 34.2834 42.2092 34.2834 40.8482C34.2834 39.4871 35.2256 38.5016 36.6859 38.5016C37.3454 38.5016 37.8165 38.6424 38.2876 39.0178L37.8165 39.8157C37.4396 39.5341 37.0628 39.3933 36.6388 39.3933C35.838 39.4402 35.2727 40.0034 35.2727 40.8482C35.2727 41.7399 35.838 42.3031 36.6388 42.3031C37.0628 42.3031 37.4396 42.1623 37.8165 41.8807L38.2876 42.6785C37.8165 43.054 37.3454 43.1948 36.6859 43.1948ZM43.4225 40.8482V38.5954H42.4332V39.1586C42.1034 38.7362 41.6323 38.5016 41.0199 38.5016C39.748 38.5016 38.7587 39.4871 38.7587 40.8482C38.7587 42.2092 39.748 43.1948 41.0199 43.1948C41.6794 43.1948 42.1505 42.9601 42.4332 42.5377V43.1009H43.4225V40.8482ZM41.1612 39.3933C40.3133 39.3933 39.7951 40.0503 39.7951 40.8482C39.7951 41.646 40.3133 42.2561 41.1612 42.3031C41.9621 42.3031 42.5274 41.646 42.5274 40.8482C42.5274 40.0034 41.9621 39.3933 41.1612 39.3933ZM27.9708 38.5016C26.6517 38.5016 25.7096 39.4402 25.7096 40.8482C25.7096 42.2561 26.6517 43.1948 28.0179 43.1948C28.6774 43.1948 29.337 43.007 29.8552 42.5847L29.3841 41.8807C29.0072 42.1623 28.5361 42.35 28.065 42.35C27.4526 42.35 26.8402 42.0684 26.6989 41.2706H30.0436V40.8951C30.0907 39.4402 29.2427 38.5016 27.9708 38.5016ZM29.1014 40.4258C29.0072 39.7218 28.5832 39.3463 27.9708 39.3463C27.2642 39.3463 26.8402 39.8157 26.746 40.4258H29.1014ZM50.2532 39.3933C49.4053 39.3933 48.8871 40.0503 48.8871 40.8482C48.8871 41.646 49.4053 42.2561 50.2532 42.3031C51.0541 42.3031 51.6194 41.646 51.6194 40.8482C51.6194 40.0034 51.0541 39.3933 50.2532 39.3933ZM15.8168 40.8482V38.5954H14.8275V39.1586C14.4977 38.7362 14.0267 38.5016 13.4142 38.5016C12.1423 38.5016 11.153 39.4871 11.153 40.8482C11.153 42.2092 12.1423 43.1948 13.4142 43.1948C14.0738 43.1948 14.5448 42.9601 14.8275 42.5377V43.1009H15.8168V40.8482ZM13.5085 39.3933C12.6605 39.3933 12.1423 40.0503 12.1423 40.8482C12.1423 41.646 12.6605 42.2561 13.5085 42.3031C14.3093 42.3031 14.8746 41.646 14.8746 40.8482C14.8746 40.0034 14.3093 39.3933 13.5085 39.3933Z" fill="black"/>
<path d="M20.2921 4.38184H35.1313V30.9454H20.2921V4.38184Z" fill="#FF5F00"/>
<path d="M21.2343 17.6636C21.2343 12.2664 23.7782 7.47936 27.6882 4.38184C24.8145 2.1291 21.1872 0.768066 17.2301 0.768066C7.85543 0.768066 0.270935 8.32414 0.270935 17.6636C0.270935 27.0031 7.85543 34.5592 17.2301 34.5592C21.1872 34.5592 24.8145 33.1982 27.6882 30.9454C23.7782 27.8948 21.2343 23.0608 21.2343 17.6636Z" fill="#EB001B"/>
<path d="M55.1526 17.6636C55.1526 27.0031 47.5681 34.5592 38.1934 34.5592C34.2363 34.5592 30.6089 33.1982 27.7353 30.9454C31.6924 27.8479 34.1892 23.0608 34.1892 17.6636C34.1892 12.2664 31.6453 7.47936 27.7353 4.38184C30.6089 2.1291 34.2363 0.768066 38.1934 0.768066C47.5681 0.768066 55.1526 8.37107 55.1526 17.6636Z" fill="#F79E1B"/>
</svg>
