<svg width="26" height="26" viewBox="0 0 26 26" fill="none" xmlns="http://www.w3.org/2000/svg">
<path fill-rule="evenodd" clip-rule="evenodd" d="M0 9V0H9V9H0ZM11 2V0H13V2H11ZM13 8H11V4H13V2H15V6H13V8ZM20 13V11H15V8H13V11H4V13H2V11H0V13H2V15H6V13H8V15H13V13H15V15H18V13H20ZM20 13H22V11H24V13H26V15H20V13ZM17 0V9H26V0H17ZM7 2H2V7H7V2ZM19 2H24V7H19V2ZM3 6V3H6V6H3ZM20 3V6H23V3H20ZM13 18H11V16H13V18ZM24 24V22H26V18H24V16H17V18H13V20H11V24H13V26H15V24H13V22H17V26H19V24H21V26H23V24H24ZM24 24H26V26H24V24ZM21 24V22H22V24H21ZM19 20V22H17V20H19ZM19 20V18H21V20H19ZM0 26V17H9V26H0ZM2 19H7V24H2V19ZM3 23V20H6V23H3Z" fill="#4F62C0"/>
</svg>
