<svg width="152" height="178" viewBox="0 0 152 178" fill="none" xmlns="http://www.w3.org/2000/svg">
<mask id="mask0_0_15" style="mask-type:luminance" maskUnits="userSpaceOnUse" x="0" y="-1" width="152" height="179">
<path fill-rule="evenodd" clip-rule="evenodd" d="M0 -0.000350952H151.999V178H0V-0.000350952Z" fill="white"/>
</mask>
<g mask="url(#mask0_0_15)">
<path fill-rule="evenodd" clip-rule="evenodd" d="M134.141 115.256C124.952 140.103 106.193 157.166 76.7926 167.42C76.6877 167.455 76.5761 167.486 76.4604 167.509C76.1567 167.569 75.8475 167.569 75.5397 167.508C75.4253 167.485 75.3134 167.455 75.2099 167.42C45.7787 157.185 27.0074 140.131 17.8247 115.283C9.7941 93.5534 10.2491 69.7118 10.6507 48.6786L10.6535 48.5618C10.735 46.7543 10.7894 44.8614 10.8194 42.7806C10.8849 38.4228 14.3656 34.8172 18.744 34.5742C30.3573 33.9276 40.5602 31.6897 49.9347 27.7323C59.2973 23.7805 67.6123 18.2097 75.3532 10.7027C75.7468 10.3714 76.2575 10.37 76.6497 10.7027C84.3916 18.2097 92.7066 23.7805 102.068 27.7323C111.443 31.6897 121.645 33.9276 133.26 34.5742C137.638 34.8172 141.119 38.4228 141.183 42.782C141.214 44.8735 141.269 46.7665 141.351 48.5618C141.751 69.6193 142.195 93.48 134.141 115.256ZM151.822 48.2958L151.816 48.1571C151.739 46.4474 151.687 44.6385 151.655 42.6259C151.51 32.8112 143.686 24.6931 133.843 24.1445C113.32 23.0025 97.4444 16.3289 83.8795 3.14399L83.7637 3.03378C79.3393 -1.01189 72.6649 -1.01189 68.2388 3.03378L68.1231 3.14399C54.5581 16.3289 38.6821 23.0025 18.1597 24.1459C8.31768 24.6931 0.492819 32.8112 0.347094 42.6273C0.317113 44.6263 0.264122 46.4352 0.186379 48.1571L0.178361 48.4791C-0.220814 69.3478 -0.716557 95.3202 7.9966 118.894C12.7874 131.858 20.0429 143.127 29.5607 152.39C40.4008 162.939 54.5989 171.314 71.7606 177.282C72.3187 177.476 72.8992 177.633 73.4901 177.752C74.3233 177.917 75.1625 178 76.0013 178C76.8404 178 77.6806 177.917 78.5127 177.752C79.1037 177.633 79.688 177.474 80.2489 177.279C97.39 171.301 111.573 162.922 122.404 152.374C131.917 143.108 139.173 131.836 143.968 118.87C152.714 95.2253 152.219 69.2039 151.822 48.2958Z" fill="#A5E8F0"/>
<path fill-rule="evenodd" clip-rule="evenodd" d="M75.5 123.521C56.7396 123.521 41.4775 108.259 41.4775 89.4991C41.4775 70.739 56.7396 55.4774 75.5 55.4774C94.2593 55.4774 109.521 70.739 109.521 89.4991C109.521 108.259 94.2593 123.521 75.5 123.521ZM75.5 45C50.9622 45 31 64.963 31 89.4991C31 114.037 50.9622 134 75.5 134C100.037 134 120 114.037 120 89.4991C120 64.963 100.037 45 75.5 45Z" fill="#4F62C0"/>
<path fill-rule="evenodd" clip-rule="evenodd" d="M68.4986 95.2989L62.9096 89.6651C60.8712 87.6103 57.5663 87.6103 55.5278 89.6651C53.4907 91.7199 53.4907 95.0513 55.5278 97.1047L64.8084 106.46C65.8275 107.487 67.1631 108 68.4986 108C69.8342 108 71.1695 107.487 72.1889 106.46L96.4722 81.9817C98.5093 79.9269 98.5093 76.5956 96.4722 74.5422C94.4337 72.4859 91.1288 72.4859 89.0904 74.5422L68.4986 95.2989Z" fill="#A5E8F0"/>
</g>
</svg>
