<svg width="104" height="122" viewBox="0 0 104 122" fill="none" xmlns="http://www.w3.org/2000/svg">
<mask id="mask0_0_7" style="mask-type:luminance" maskUnits="userSpaceOnUse" x="0" y="0" width="104" height="122">
<path fill-rule="evenodd" clip-rule="evenodd" d="M0 0H104V122H0V0Z" fill="white"/>
</mask>
<g mask="url(#mask0_0_7)">
<path fill-rule="evenodd" clip-rule="evenodd" d="M91.7816 78.9959C85.4941 96.0255 72.6588 107.721 52.5428 114.748C52.471 114.772 52.3947 114.794 52.3155 114.81C52.1077 114.851 51.8961 114.851 51.6855 114.809C51.6073 114.793 51.5307 114.772 51.4598 114.748C31.3226 107.734 18.4789 96.0451 12.196 79.0145C6.70132 64.121 7.01261 47.7802 7.2874 33.3642L7.28931 33.2841C7.34513 32.0453 7.38234 30.7479 7.40285 29.3218C7.4477 26.3349 9.82922 23.8637 12.825 23.6972C20.771 23.254 27.7519 21.7202 34.1661 19.0078C40.5722 16.2993 46.2615 12.4811 51.5579 7.33588C51.8272 7.1088 52.1766 7.10785 52.445 7.33588C57.7421 12.4811 63.4314 16.2993 69.8365 19.0078C76.2509 21.7202 83.2316 23.254 91.1789 23.6972C94.1744 23.8637 96.5561 26.3349 96.5998 29.3227C96.6212 30.7562 96.6585 32.0537 96.7145 33.2841C96.9883 47.7168 97.2922 64.0707 91.7816 78.9959ZM103.879 33.1019L103.875 33.0068C103.822 31.8349 103.787 30.5951 103.765 29.2157C103.665 22.4888 98.3125 16.9248 91.5777 16.5488C77.5357 15.766 66.6731 11.192 57.3917 2.15519L57.3125 2.07965C54.2853 -0.693217 49.7185 -0.693217 46.6901 2.07965L46.6109 2.15519C37.3296 11.192 26.467 15.766 12.4252 16.5497C5.69113 16.9248 0.337237 22.4888 0.237529 29.2167C0.217015 30.5868 0.180758 31.8266 0.127565 33.0068L0.122079 33.2274C-0.151043 47.5307 -0.490238 65.3319 5.47144 81.4895C8.74938 90.3747 13.7137 98.0983 20.226 104.447C27.6429 111.677 37.3575 117.418 49.0998 121.507C49.4817 121.641 49.8788 121.749 50.2832 121.83C50.8533 121.943 51.4274 122 52.0013 122C52.5755 122 53.1503 121.943 53.7197 121.83C54.124 121.749 54.5238 121.64 54.9076 121.506C66.6359 117.408 76.3404 111.665 83.7507 104.436C90.26 98.0852 95.2246 90.3597 98.5052 81.4728C104.489 65.2669 104.151 47.432 103.879 33.1019Z" fill="#A5E8F0"/>
</g>
</svg>
