<svg width="45" height="39" viewBox="0 0 45 39" fill="none" xmlns="http://www.w3.org/2000/svg">
<path fill-rule="evenodd" clip-rule="evenodd" d="M11.3235 0.962646V10.472H12.3529V0.962646H11.3235ZM28.7092 26.1344C28.7092 27.4154 29.7798 28.4626 31.1111 28.4626H44.2647V29.4907L31.9118 29.4907V38.743H30.8824V29.4907H31.1074C29.214 29.4887 27.6797 27.9868 27.6797 26.1344V24.6075H16.5278V23.5795H27.6797L27.6797 19.4673V18.4393L27.6797 14.3271H16.5278V13.2991H27.6797V13.2689C27.6797 11.4904 29.0939 10.0351 30.8824 9.91996V0.962646H31.9118V9.91262H44.2647V10.9407H31.1111C29.7798 10.9407 28.7092 11.9879 28.7092 13.2689V18.4393H44.2647V19.4673H28.7092V26.1344ZM11.3235 29.4907V38.743H12.3529V29.4907H11.3235ZM16.2418 19.4673H0.800659V18.4393H16.2418V19.4673Z" fill="url(#paint0_linear_3_332)"/>
<defs>
<linearGradient id="paint0_linear_3_332" x1="-4.97128" y1="21.4277" x2="20.3724" y2="51.2175" gradientUnits="userSpaceOnUse">
<stop stop-color="white"/>
<stop offset="1" stop-color="#1F1F1F"/>
</linearGradient>
</defs>
</svg>
