<svg width="18" height="12" viewBox="0 0 18 12" fill="none" xmlns="http://www.w3.org/2000/svg">
<path fill-rule="evenodd" clip-rule="evenodd" d="M2.00001 0.166626H7.83334C8.47768 0.166626 9.00001 0.68896 9.00001 1.33329C9.00001 1.97762 8.47768 2.49996 7.83334 2.49996H2.00001C1.35568 2.49996 0.833344 1.97762 0.833344 1.33329C0.833344 0.68896 1.35568 0.166626 2.00001 0.166626ZM10.1667 9.49996H16C16.6443 9.49996 17.1667 10.0223 17.1667 10.6666C17.1667 11.311 16.6443 11.8333 16 11.8333H10.1667C9.52234 11.8333 9.00001 11.311 9.00001 10.6666C9.00001 10.0223 9.52234 9.49996 10.1667 9.49996ZM16 4.83329H2.00001C1.35568 4.83329 0.833344 5.35563 0.833344 5.99996C0.833344 6.64429 1.35568 7.16663 2.00001 7.16663H16C16.6443 7.16663 17.1667 6.64429 17.1667 5.99996C17.1667 5.35563 16.6443 4.83329 16 4.83329Z" fill="#4F62C0"/>
</svg>
