<svg width="26" height="26" viewBox="0 0 26 26" fill="none" xmlns="http://www.w3.org/2000/svg">
<path d="M26 22.75L21.125 26V24.375H13.4062L16.6562 21.125H21.125V19.5L26 22.75Z" fill="white"/>
<path d="M0 3.25L4.875 0V1.625H12.5938L9.34375 4.875H4.875V6.5L0 3.25Z" fill="white"/>
<path fill-rule="evenodd" clip-rule="evenodd" d="M0 15.8275L15.8275 0L26 10.1725L10.1725 26L0 15.8275ZM15.8275 2.25875L2.25875 15.8275L10.1725 23.7412L23.7412 10.1725L15.8275 2.25875Z" fill="white"/>
<path d="M6.77629 15.8276L5.63879 16.9651L9.03504 20.3614L10.1725 19.2239L11.375 20.3451L15.8275 15.8276C14.2594 17.3501 11.7595 17.3316 10.214 15.7862C8.66853 14.2407 8.65007 11.7407 10.1725 10.1726L5.65504 14.6251L6.77629 15.8276Z" fill="white"/>
<path d="M20.345 9.05128L16.9487 5.65503L15.8112 6.79253L14.625 5.65503L10.1725 10.1725C11.7406 8.65005 14.2406 8.66851 15.786 10.214C17.3315 11.7595 17.35 14.2594 15.8275 15.8275L20.345 11.375L19.2075 10.2375L20.345 9.05128Z" fill="white"/>
</svg>
