<svg width="389" height="297" viewBox="0 0 389 297" fill="none" xmlns="http://www.w3.org/2000/svg">
<g filter="url(#filter0_d_0_78)">
<rect x="60" y="30" width="269" height="177" rx="15" fill="white"/>
</g>
<path fill-rule="evenodd" clip-rule="evenodd" d="M194 166C219.957 166 241 144.957 241 119C241 93.0426 219.957 72 194 72C168.043 72 147 93.0426 147 119C147 144.957 168.043 166 194 166Z" fill="#4F62C0" fill-opacity="0.2"/>
<path fill-rule="evenodd" clip-rule="evenodd" d="M194 156C214.435 156 231 139.435 231 119C231 98.5655 214.435 82 194 82C173.565 82 157 98.5655 157 119C157 139.435 173.565 156 194 156Z" fill="#4F62C0"/>
<path fill-rule="evenodd" clip-rule="evenodd" d="M210.5 119.5L185.5 135.5V103.5L210.5 119.5Z" fill="#A5E8F0"/>
<defs>
<filter id="filter0_d_0_78" x="0" y="0" width="389" height="297" filterUnits="userSpaceOnUse" color-interpolation-filters="sRGB">
<feFlood flood-opacity="0" result="BackgroundImageFix"/>
<feColorMatrix in="SourceAlpha" type="matrix" values="0 0 0 0 0 0 0 0 0 0 0 0 0 0 0 0 0 0 127 0" result="hardAlpha"/>
<feOffset dy="30"/>
<feGaussianBlur stdDeviation="30"/>
<feColorMatrix type="matrix" values="0 0 0 0 0.145098 0 0 0 0 0.45098 0 0 0 0 0.835294 0 0 0 0.2 0"/>
<feBlend mode="normal" in2="BackgroundImageFix" result="effect1_dropShadow_0_78"/>
<feBlend mode="normal" in="SourceGraphic" in2="effect1_dropShadow_0_78" result="shape"/>
</filter>
</defs>
</svg>
