<svg width="64" height="63" viewBox="0 0 64 63" fill="none" xmlns="http://www.w3.org/2000/svg">
<path fill-rule="evenodd" clip-rule="evenodd" d="M49.5 15.8H55.5V3.5H49.5V15.8Z" fill="#627C89"/>
<path fill-rule="evenodd" clip-rule="evenodd" d="M49.5 5.8H55.5V3.5H49.5V5.8Z" fill="#9DA6B1"/>
<path fill-rule="evenodd" clip-rule="evenodd" d="M48.232 4.8479H56.732V1.8479H48.232V4.8479Z" fill="#445C6C"/>
<path fill-rule="evenodd" clip-rule="evenodd" d="M4.1004 19.4996V62.3996H59.9004V19.4996L32.0004 2.40063L4.1004 19.4996Z" fill="#F4F4F4"/>
<path fill-rule="evenodd" clip-rule="evenodd" d="M31 0.3L1.1 18.7C0.4 19.1 0 19.9 0 20.7C0 22.5 2 23.6 3.5 22.7L32 5.1L60.5 22.6C62 23.5 64 22.4 64 20.6C64 19.8 63.6 19.1 62.9 18.6L33 0.3C32.4 -0.1 31.6 -0.1 31 0.3Z" fill="#E95C60"/>
<path fill-rule="evenodd" clip-rule="evenodd" d="M19.4771 38.2759C21.9101 31.3449 29.5001 27.6989 36.4321 30.1309C43.3621 32.5639 47.0091 40.1549 44.5761 47.0859C42.1441 54.0169 34.5531 57.6639 27.6221 55.2299C20.6911 52.7969 17.0441 45.2069 19.4771 38.2759Z" fill="#FCD66F"/>
<path fill-rule="evenodd" clip-rule="evenodd" d="M32 54.2994C25.6 54.2994 20.3 49.1004 20.3 42.6004C20.3 36.1994 25.5 30.9004 32 30.9004C38.4 30.9004 43.7 36.1004 43.7 42.6004C43.7 49.1004 38.4 54.2994 32 54.2994Z" fill="#D89832"/>
<path fill-rule="evenodd" clip-rule="evenodd" d="M32 52.6997C26.5 52.6997 22 48.1997 22 42.6997C22 37.1997 26.5 32.6997 32 32.6997C37.5 32.6997 42 37.1997 42 42.6997C42 48.1997 37.5 52.6997 32 52.6997Z" fill="#FCD66F"/>
<path fill-rule="evenodd" clip-rule="evenodd" d="M35.2998 44.4997C35.2998 44.8997 35.1998 45.2997 35.0998 45.6997C34.9008 45.9997 34.6998 46.2997 34.4008 46.6007C34.0998 46.8997 33.7998 47.1007 33.4008 47.1997C32.9998 47.3997 32.5998 47.3997 32.0998 47.4997L31.8998 49.1007V49.1997L31.7998 49.2997H31.5998H31.2998H30.8998C30.7998 49.2997 30.6998 49.2997 30.6998 49.1997C30.5998 49.1997 30.5998 49.1007 30.5998 49.1007V48.8997L30.7998 47.3997C30.5998 47.3997 30.3998 47.2997 30.1998 47.2997C29.9998 47.2997 29.7998 47.1997 29.6998 47.1007C29.4998 46.9997 29.3998 46.9997 29.2998 46.8997C29.1998 46.7997 29.0998 46.7997 28.9998 46.6997C28.8998 46.6007 28.8998 46.6007 28.8998 46.3997V45.8997V45.4997C28.8998 45.3997 28.8998 45.2997 28.9998 45.1997C28.9998 45.1007 29.0998 45.1007 29.0998 45.1007H29.1998C29.2998 45.1007 29.3998 45.1007 29.4998 45.1997C29.5998 45.2997 29.7998 45.3997 29.9998 45.3997C30.1998 45.3997 30.3998 45.6007 30.6998 45.6007C30.9998 45.6997 31.2998 45.6997 31.6998 45.6997C32.2998 45.6997 32.6998 45.6007 32.9998 45.3997C33.2998 45.1997 33.4008 44.8997 33.4008 44.4997C33.4008 44.2997 33.2998 44.1007 33.1998 43.8997C33.0998 43.6997 32.8998 43.6007 32.6998 43.4997C32.4998 43.3997 32.2998 43.2997 31.9998 43.1997C31.6998 43.1007 31.4998 42.9997 31.1998 42.8997C30.8998 42.7997 30.6998 42.6997 30.3998 42.4997C30.0998 42.3997 29.8998 42.1997 29.6998 41.9997C29.4998 41.7997 29.2998 41.4997 29.1998 41.1997C29.0998 40.8997 28.9998 40.6007 28.9998 40.1007C28.9998 39.6997 29.0998 39.3997 29.1998 39.1007C29.2998 38.7997 29.4998 38.4997 29.6998 38.2997C29.8998 38.1007 30.1998 37.8997 30.5998 37.6997C30.9998 37.4997 31.2998 37.4997 31.7998 37.3997L31.9998 35.8997V35.7997L32.0998 35.6997H32.2998H32.5998H32.9998C33.0998 35.6997 33.1998 35.6997 33.1998 35.7997C33.2998 35.7997 33.2998 35.8997 33.2998 35.8997V36.1007L33.0998 37.4997C33.1998 37.4997 33.4008 37.4997 33.4998 37.6007C33.6998 37.6007 33.7998 37.6997 33.9008 37.6997C33.9998 37.6997 34.1998 37.7997 34.2998 37.8997C34.4008 37.9997 34.4998 37.9997 34.4998 37.9997L34.5998 38.1007C34.5998 38.1007 34.5998 38.1997 34.6998 38.2997V38.4997V38.7997V39.1997V39.3997C34.6998 39.3997 34.6998 39.4997 34.5998 39.4997H34.4998C34.4008 39.4997 34.2998 39.4997 34.1998 39.3997C34.0998 39.2997 33.9008 39.2997 33.6998 39.1997C33.4998 39.1007 33.2998 39.1007 33.0998 38.9997C32.8998 39.1997 32.5998 39.1997 32.2998 39.1997C31.9998 39.1997 31.7998 39.1997 31.5998 39.2997C31.3998 39.3997 31.2998 39.3997 31.0998 39.4997C30.9998 39.6007 30.8998 39.6997 30.7998 39.7997C30.6998 39.8997 30.6998 40.1007 30.6998 40.1997C30.6998 40.3997 30.7998 40.6007 30.8998 40.7997C30.9998 40.9997 31.1998 41.1007 31.3998 41.1997C31.5998 41.2997 31.7998 41.3997 32.0998 41.4997C32.3998 41.6007 32.5998 41.6997 32.8998 41.7997C33.1998 41.8997 33.4008 41.9997 33.6998 42.1997C33.9998 42.2997 34.1998 42.4997 34.4008 42.6997C34.5998 42.8997 34.7998 43.1997 34.9008 43.3997C35.1998 43.7997 35.2998 44.1007 35.2998 44.4997Z" fill="#D89832"/>
</svg>
