<svg width="104" height="104" viewBox="0 0 104 104" fill="none" xmlns="http://www.w3.org/2000/svg">
<path d="M10.1369 24.5053C0.0780934 39.6605 -1.06041 59.136 7.16652 75.1759L4.50685 76.7516L6.03601 79.3326C7.78488 82.2845 9.84813 85.1047 12.2271 87.7468C14.606 90.3889 17.1951 92.7357 19.948 94.7835L22.3551 96.5741L24.2002 94.0937C39.2923 103.952 58.7801 104.856 74.9037 96.4361L76.4933 99.0847L79.0656 97.5408C82.0017 95.7786 84.8113 93.7103 87.4493 91.335C90.0872 88.9598 92.4379 86.3818 94.4974 83.6459L96.3017 81.2491L93.8338 79.3914C103.893 64.2361 105.031 44.7607 96.8041 28.7208L99.4638 27.1451L97.9347 24.564C96.1858 21.6122 94.1225 18.7919 91.7436 16.1498C89.3646 13.5078 86.7755 11.161 84.0226 9.11316L81.6156 7.32259L79.7705 9.80298C64.6784 -0.0555104 45.1906 -0.958976 29.067 7.46056L27.4774 4.81201L24.9051 6.35585C21.9689 8.1181 19.1594 10.1864 16.5214 12.5617C13.8834 14.9369 11.5328 17.5149 9.47327 20.2507L7.66901 22.6475L10.1369 24.5053Z" stroke="#4F62C0" stroke-width="6" stroke-linecap="square" stroke-dasharray="200 600"/>
</svg>
