<svg width="38" height="52" viewBox="0 0 38 52" fill="none" xmlns="http://www.w3.org/2000/svg">
<path d="M33 44.5522V50.0687L33.9923 51H36.3461C37.2595 51 38 50.3051 38 49.4478V48.5165V43L33 44.5522Z" fill="#67B734"/>
<path d="M36.3461 49.8182H33V52H36.3461C37.2595 52 38 51.186 38 50.1818V48C38 49.0042 37.2595 49.8182 36.3461 49.8182Z" fill="#549E25"/>
<path d="M33 44.8834L18.8347 44L5.71544 44.8834H3.64693C1.89765 44.8834 0.427348 45.9946 0.00663443 47.4999C-0.0722558 47.7821 0.517888 51 3.64693 51H32.0506L32.9999 50.1166V49.1198L32.0506 48.3835L32.9999 47.6473V44.8834H33Z" fill="#E4EEF9"/>
<path d="M0.120677 47C0.0420587 47.3219 0 47.6596 0 48.0077C0 50.2126 1.67807 52 3.74811 52H33V49.9845H3.74811C2.00497 49.9846 0.53994 48.717 0.120677 47Z" fill="#D5E0F2"/>
<path d="M2 4.76321V42.0582L3.86245 44H36.4177C38 44 38 41.4597 38 41.4597V1.58774C37.9999 0.71081 37.2914 0 36.4176 0H5.93092L2 4.76321Z" fill="#A0E557"/>
<path d="M36.4134 42.5294H3.77123C1.68842 42.5294 0 44.157 0 46.1647V48C0 45.9923 1.68842 44.3647 3.77123 44.3647H36.4134C37.2896 44.3647 38 43.6799 38 42.8353V41C38 41.8446 37.2896 42.5294 36.4134 42.5294Z" fill="#87D654"/>
<path d="M30.9721 18H12.028C11.4603 18 11 17.5705 11 17.0408V16.1776V9.9592C11 9.42947 11.4603 9 12.028 9H30.972C31.5397 9 32 9.42947 32 9.9592V16.1775V17.0407C32 17.5705 31.5398 18 30.9721 18Z" fill="#F2FDFF"/>
<path d="M30.9721 17.7143H12.028C11.4603 17.7143 11 17.3945 11 17V18.2857C11 18.6802 11.4603 19 12.028 19H30.972C31.5397 19 32 18.6802 32 18.2857V17C32 17.3945 31.5398 17.7143 30.9721 17.7143Z" fill="#D3ECF5"/>
<path d="M6 0H3.8706C1.73289 0 0 1.66426 0 3.71731V46.1231V48C0 45.9467 1.7331 43.3438 3.87102 43.3438H5.02291L6 42.4054V0Z" fill="#FF5876"/>
<path d="M0 46.9871V49C0 46.7979 1.7331 45.0128 3.87102 45.0128H6V44.0064V43H3.87102C1.7331 42.9999 0 44.785 0 46.9871Z" fill="#E6485D"/>
<path d="M34 47H5.8172C5.36585 47 5 47.2238 5 47.5C5 47.7762 5.36585 48 5.8172 48H33.9999V47L34 47Z" fill="#BDCDE5"/>
</svg>
