<svg width="95" height="132" viewBox="0 0 95 132" fill="none" xmlns="http://www.w3.org/2000/svg">
<g opacity="0.266392">
<path d="M-37 66C-37 102.451 -7.45126 132 29 132C40.0507 132 50.4649 129.285 59.6132 124.487C62.7271 122.852 65.696 120.977 68.4947 118.884C69.9549 117.792 71.3669 116.642 72.7274 115.436C86.3875 103.346 95 85.6783 95 66C95 29.5487 65.4513 0 29 0C-7.45126 0 -37 29.5487 -37 66Z" fill="#4F62C0"/>
<path d="M-4 115.755V123.367C2.58415 127.141 9.87493 129.8 17.6217 131.097C19.2836 131.375 20.9636 131.592 22.6627 131.742C23.7207 131.837 24.7867 131.905 25.8617 131.946C26.7364 131.984 27.6172 132 28.5 132C30.4709 132 32.4177 131.914 34.3433 131.742C39.2273 131.31 43.9583 130.339 48.4789 128.889C52.8677 127.483 57.0602 125.624 61 123.367V115.755C61 104.303 53.2985 94.6657 42.838 91.8397C42.4555 91.737 42.0709 91.6415 41.6804 91.5571C40.6406 91.3283 39.5746 91.1708 38.4895 91.0813C37.8271 91.0264 37.1598 91 36.4833 91H20.5187C18.734 91 16.9946 91.1901 15.3196 91.5571C15.223 91.5764 15.1264 91.5977 15.0317 91.6201C14.7489 91.6852 14.466 91.7553 14.1892 91.8315C14.1812 91.8346 14.1751 91.8346 14.1671 91.8376C11.407 92.5828 8.83915 93.8037 6.55518 95.4048C0.176369 99.8756 -4 107.323 -4 115.755Z" fill="#3D4159"/>
<path d="M15 92L15.0598 92.2775L23.6176 131.745C25.5542 131.915 27.5172 132 29.4975 132C31.4828 132 33.4438 131.915 35.3834 131.745L43.9402 92.2795L44 92H15Z" fill="#F2F0EC"/>
<path d="M23 100L29.5 111L36 100" fill="#F74F4F"/>
<path d="M23 131.72C24.9761 131.905 26.9781 132 28.999 132C31.0229 132 33.0249 131.905 35 131.722L28.999 108L23 131.72Z" fill="#F74F4F"/>
<path d="M29 101.759L39.734 108L43 92.1102L36.3299 88" fill="#D8D5D0"/>
<path d="M29 101.759L18.265 108L15 92.1102L21.6701 88" fill="#D8D5D0"/>
<path d="M7 94.7787L14.0225 113.237H10.5771L17.8908 131.166C19.5263 131.439 21.1797 131.653 22.8518 131.799C23.893 131.893 24.942 131.96 26 132L14.4326 91L7 94.7787Z" fill="#2A2F4F"/>
<path d="M51 94.5324L43.9782 113.113H47.4227L40.1086 131.161C38.474 131.435 36.8206 131.65 35.1483 131.798C34.1071 131.892 33.057 131.96 32 132L43.4878 91L51 94.5324Z" fill="#2A2F4F"/>
<path d="M20 82V92.47C20 96.303 22.666 99.543 26.3387 100.619C27.1787 100.866 28.0746 101 29.0016 101C33.972 101 38 97.1817 38 92.47V82H20Z" fill="#EAB599"/>
<path d="M20 92V92.6769C20 96.5918 22.5385 99.9009 26.0355 101C29.1903 100.014 31.5621 97.2245 32 93.812C31.428 93.8471 30.8521 93.8652 30.2742 93.8652C28.6529 93.8652 27.0631 93.7348 25.5158 93.4761C23.6075 93.1642 21.7643 92.6648 20 92V92Z" fill="#F6CAAE"/>
<path d="M53 64.0005C53 67.9824 55.9095 71.2852 59.719 71.898C60.1348 71.9653 60.5634 72 61 72C65.4193 72 69 68.42 69 64.0005C69 59.581 65.4193 56 61 56C60.5634 56 60.1348 56.0356 59.719 56.103C55.9095 56.7158 53 60.0176 53 64.0005Z" fill="#F6CAAE"/>
<path d="M53 64C53 68.0336 55.9917 71.3792 59.9088 72C60.6203 69.4507 61 66.768 61 64C61 61.231 60.6203 58.5483 59.9088 56C55.9917 56.6208 53 59.9654 53 64Z" fill="#EAB599"/>
<path d="M58 64C58 65.6569 59.3431 67 61 67C62.6569 67 64 65.6569 64 64C64 62.3431 62.6569 61 61 61C59.3431 61 58 62.3431 58 64Z" fill="#EAB599"/>
<path d="M5 64.0005C5 67.9824 2.09127 71.2852 -1.7184 71.898C-2.1352 71.9653 -2.5629 72 -3.00049 72C-7.42002 72 -11 68.42 -11 64.0005C-11 59.581 -7.42002 56 -3.00049 56C-2.5629 56 -2.1352 56.0356 -1.7184 56.103C2.09127 56.7158 5 60.0176 5 64.0005Z" fill="#F6CAAE"/>
<path d="M5 64C5 68.0336 2.00929 71.3792 -1.90775 72C-2.61929 69.4507 -3 66.768 -3 64C-3 61.231 -2.62031 58.5483 -1.90775 56C2.00929 56.6208 5 59.9654 5 64Z" fill="#EAB599"/>
<path d="M-1 48.2428V59.7592C-1 74.8082 10.0881 87.2932 24.6062 89.6097C24.6549 89.6178 24.7066 89.6258 24.7553 89.6339C26.2994 89.8783 27.884 90 29.502 90C46.3453 90 60 76.4598 60 59.7592V48.2428C60 44.7263 59.3954 41.3465 58.2774 38.2072C54.1059 26.4373 42.7956 18 29.502 18H29.499C27.8839 18 26.2973 18.1237 24.7503 18.3661C10.1612 20.6264 -1 33.1425 -1 48.2428Z" fill="#EAB599"/>
<path d="M-1 48.7645V60.2375C-1 75.23 9.97995 87.6681 24.3563 89.976C24.4046 89.984 24.4558 89.992 24.504 90C38.9507 87.7483 50 75.2781 50 60.2375V48.7645C50 33.7209 38.9477 21.2517 24.499 19C10.0523 21.2517 -1 33.7209 -1 48.7645Z" fill="#F6CAAE"/>
<path d="M35 58.5005C35 60.434 36.5671 62 38.5005 62C40.4329 62 42 60.434 42 58.5005C42 56.5671 40.4329 55 38.5005 55C36.5671 55 35 56.5671 35 58.5005Z" fill="#3D4159"/>
<path d="M16 58.5005C16 60.434 17.5671 62 19.5005 62C21.4329 62 23 60.434 23 58.5005C23 56.5671 21.4329 55 19.5005 55C17.5671 55 16 56.5671 16 58.5005Z" fill="#3D4159"/>
<path d="M36 57.5C36 58.3285 36.6715 59 37.5 59C38.3285 59 39 58.3285 39 57.5C39 56.6715 38.3285 56 37.5 56C36.6715 56 36 56.6715 36 57.5Z" fill="white"/>
<path d="M16 57.5C16 58.3285 16.6723 59 17.5005 59C18.3288 59 19 58.3285 19 57.5C19 56.6715 18.3288 56 17.5005 56C16.6723 56 16 56.6715 16 57.5Z" fill="white"/>
<path d="M25.5067 66H32.4933C33.326 66 34 65.3282 34 64.4995C34 63.6718 33.326 63 32.4933 63H25.5067C24.674 63 24 63.6718 24 64.4995C24 65.3282 24.674 66 25.5067 66Z" fill="#EAB599"/>
<path d="M28.9995 75C31.5102 75 34.0199 74.4266 36.3082 73.2809C36.9543 72.9574 37.1896 72.2186 36.8347 71.6298C36.4797 71.042 35.6691 70.8275 35.0239 71.1501C31.2519 73.0401 26.7481 73.0401 22.9761 71.1501C22.3309 70.8275 21.5203 71.042 21.1653 71.6298C20.8104 72.2186 21.0457 72.9574 21.6918 73.2809C23.9791 74.4266 26.4898 75 28.9995 75Z" fill="#EAB599"/>
<path d="M-1 38.2505V50H4.67697V40.7991L45.6534 33.2793L54.323 31.6874V50H60V38.2505C60 24.8569 49.0072 14 35.4468 14H23.5532C23.2306 14 22.908 14.006 22.5844 14.022C9.4754 14.52 -1 25.1755 -1 38.2505Z" fill="#2A2F4F"/>
<path d="M-1 38.2433V50H4.59746V40.7935L45 33.2691C42.7734 22.5539 33.497 14.4341 22.2541 14C9.32869 14.4982 -1 25.1603 -1 38.2433Z" fill="#3D4159"/>
<path d="M36 99.3519L38.7037 102.868L46.0865 104.839L50.446 106L53.8481 102.863C53.9425 102.774 54.039 102.689 54.1304 102.597C63.7196 93.6445 68.2509 86.6064 72.4276 74.1675C72.4708 74.0469 72.511 73.9233 72.5512 73.7997L74 69.4038L71.1345 65.9144L66.2867 60.008L61.9723 59L61.3032 60.7015L59.4193 65.4953L56.6915 72.4369L60.2422 75.679L62.6395 77.8669C61.5403 81.3915 56.1971 89.6928 53.4452 92.1551L50.4621 90.8787L46.0433 88.9803L40.8539 94.344L37.271 98.0424L37.268 98.0404L36 99.3519Z" fill="#66BAED"/>
<path d="M45.7214 88L50 89.913L38.6164 102L36 98.4567L45.7214 88Z" fill="#F2F0EC"/>
<path d="M57 71.6979L60.7046 75L67 59.0245L62.5019 58L57 71.6979Z" fill="#F2F0EC"/>
<path d="M46 103.842L50.373 105L53.7856 101.87C53.8804 101.781 53.9771 101.696 54.0688 101.604C63.6877 92.6709 68.2331 85.6478 72.4227 73.2355C72.4661 73.1151 72.5064 72.9918 72.5467 72.8684L74 68.4819L71.1256 65C71.1256 65 70.2095 88.7627 46.002 103.839C46.002 103.839 46 103.839 46 103.842Z" fill="#2BA1CF"/>
<path d="M54.6083 88.3714L58.6301 92.3928C59.7021 93.4649 61.1064 94.002 62.5106 94C63.4036 94.002 64.2975 93.7854 65.1055 93.3512C65.5673 93.1019 66.0014 92.7845 66.392 92.3938C68.536 90.2496 68.536 86.7741 66.392 84.6298L62.3712 80.6074C60.2272 78.4642 56.7522 78.4642 54.6083 80.6074C54.2177 80.9991 53.8992 81.4323 53.651 81.8952C52.5336 83.9731 52.8559 86.6178 54.6083 88.3714Z" fill="#EAB599"/>
<path d="M54.639 88.2637L58.7378 92.3621C59.8303 93.4547 61.2614 94.002 62.6925 94C63.6025 94.002 64.5136 93.7813 65.337 93.3388C66.4748 91.221 66.1472 88.5247 64.3614 86.7386L60.2626 82.6393C58.4768 80.8532 55.7809 80.5246 53.6635 81.6636C52.5246 83.7813 52.8532 86.4766 54.639 88.2637Z" fill="#F6CAAE"/>
<path d="M60.1448 124C63.1911 122.385 66.0955 120.534 68.8335 118.468C70.262 117.39 71.6433 116.254 72.9744 115.063C73.2059 106.921 71.8699 98.7449 68.9704 91C67.8138 91.4415 66.6542 91.883 65.4975 92.3245C62.999 93.276 60.5005 94.2316 58 95.1832C61.4621 104.431 62.1763 114.437 60.1448 124Z" fill="#2A2F4F"/>
<path d="M60.1358 124C63.1692 122.369 66.0613 120.498 68.7877 118.411C69.5068 109.525 68.3992 100.523 65.4658 92C62.9779 92.9613 60.4899 93.9267 58 94.888C61.4474 104.231 62.1587 114.34 60.1358 124Z" fill="#3D4159"/>
<path d="M19 4H-30V41H19V4Z" fill="#F2F0EC"/>
<path d="M-0.0571017 22.4033C-0.0571017 24.2568 1.52173 25.7598 3.46886 25.7598C5.41701 25.7598 6.99585 24.2568 6.99585 22.4033C6.99585 20.5498 5.41701 19.0469 3.46886 19.0469C1.52173 19.0469 -0.0571017 20.5498 -0.0571017 22.4033Z" fill="#3D4159"/>
</g>
</svg>
