<svg width="37" height="41" viewBox="0 0 37 41" fill="none" xmlns="http://www.w3.org/2000/svg">
<path d="M8 13V10.8515C8 10.8515 9.5 3 18.5 3C27.5 3 29 10.8515 29 10.8515V13H8Z" fill="#805333"/>
<path d="M28.9893 18.2364C28.9893 18.6581 28.5459 19 27.9991 19C27.4522 19 27.0089 18.6581 27.0089 18.2364C27.0089 6.63024 26.9455 6.26449 27.1574 6.01939C27.3257 5.79795 27.6426 7.54652 27.9991 7.54652C28.2785 7.54703 28.5446 7.63854 28.7318 7.79849C29.0804 9.14161 28.9893 9.08281 28.9893 18.2364Z" fill="#A5A5A4"/>
<path d="M9.99086 18.2364C9.99086 18.6581 9.54739 19 9.00035 19C8.4533 19 8.00983 18.6581 8.00983 18.2364C8.00983 9.33784 7.92267 9.12633 8.26737 7.79849C8.45463 7.63854 8.72084 7.54703 9.00035 7.54652C9.35693 7.54652 9.67389 5.79795 9.84228 6.01939C10.0552 6.26602 9.99086 6.63406 9.99086 18.2364Z" fill="#A5A5A4"/>
<path d="M8.4375 14H28.5625C29.3564 14 30 14.6268 30 15.4V19.6C30 20.3732 29.3564 21 28.5625 21H8.4375C7.64359 21 7 20.3732 7 19.6V15.4C7 14.6268 7.64359 14 8.4375 14Z" fill="#547580"/>
<path d="M36.9997 40.2425C37.005 40.4424 36.9299 40.6358 36.7918 40.7786C36.6536 40.9214 36.4642 41.0013 36.2669 41H0.733138C0.535793 41.0013 0.346376 40.9214 0.208231 40.7786C0.0700861 40.6358 -0.00496356 40.4424 0.000255059 40.2425V37.25C0.222341 32.675 2.53944 32 2.53944 32L12.5777 29H24.4223L34.4606 32C34.4606 32 36.7777 32.675 36.9997 37.25V40.2425Z" fill="#285680"/>
<path d="M35.9974 40.1975C36.0139 40.3946 35.9521 40.5903 35.8258 40.741C35.6995 40.8917 35.519 40.9849 35.3246 41H2.67543C2.48099 40.9849 2.30054 40.8917 2.1742 40.741C2.04786 40.5903 1.9861 40.3946 2.00264 40.1975V37.0175C2.13572 33.7175 3.17079 32.3225 3.81401 31.775L13.0853 29H24.9147L34.186 31.775C34.8292 32.3225 35.8643 33.7175 35.9974 37.0175V40.1975Z" fill="#4482C3"/>
<path d="M24 25V30.0288C24 30.0288 23.3125 33 18.5 33C13.6875 33 13 30.0288 13 30.0288V25L24 25Z" fill="#F9C795"/>
<path d="M26.4478 18.1964C26.4812 20.1024 26.8228 21.7968 24.7212 23.747C22.4286 25.8773 22.4286 28 20.1352 28H17.8426C15.55 28 15.55 25.8773 13.2573 23.747C11.0373 21.6873 11.538 19.9366 11.538 17.6789C11.538 15.6364 10.5788 13.885 11.2219 11.589C11.5737 10.1549 12.2512 8.82793 13.1985 7.71781C13.5682 7.3538 14.0547 7.14289 14.5653 7.12525C16.608 6.99024 22.4649 6.72021 24.868 7.90533C24.868 7.90533 26.1927 8.74017 26.8613 11.7968C27.346 14.0095 26.4013 15.5487 26.4478 18.1964Z" fill="#FDD7AD"/>
<path d="M18.2667 25H10.9333C9.3133 25 8 23.7208 8 22.1429V20.7143C8 20.3198 8.32832 20 8.73333 20C9.13834 20 9.46667 20.3198 9.46667 20.7143V22.1429C9.46667 22.9318 10.1233 23.5714 10.9333 23.5714H18.2667C18.6717 23.5714 19 23.8912 19 24.2857C19 24.6802 18.6717 25 18.2667 25Z" fill="#A5A5A4"/>
<rect x="16" y="22" width="5" height="3" rx="1.5" fill="#547580"/>
<path d="M29 9.53333V11C28.7293 9.82734 28.2603 8.70708 27.6125 7.68533C26.225 5.456 23.5325 2.93333 18.5 2.93333C13.4675 2.93333 10.775 5.456 9.3875 7.68533C8.73967 8.70708 8.27073 9.82734 8 11V9.53333C8 3.86173 12.701 0 18.5 0C24.299 0 29 3.85513 29 9.53333Z" fill="#7F8284"/>
</svg>
