<svg width="52" height="52" viewBox="0 0 52 52" fill="none" xmlns="http://www.w3.org/2000/svg">
<path fill-rule="evenodd" clip-rule="evenodd" d="M51 28.9331L47.5283 32.2972L37.9551 39L36.2627 37.3601L36.2973 37.318C38.9203 37.0565 40.827 34.7849 40.5572 32.2433C40.2872 29.7018 37.943 27.8542 35.3201 28.1157C33.0497 28.3419 31.2617 30.0946 31.0543 32.2972L31.0456 32.3056L28 29.3536L39.717 18L51 28.9331Z" fill="#03AA6F"/>
<path fill-rule="evenodd" clip-rule="evenodd" d="M51 35.4545L32.8475 51H27.661L11.2373 44.9545H0V35.4545H11.2373L11.8424 35.1953L15.5593 33.6063L17.2882 32.8635H25.8631H31.1187V38.0455H20.7457L31.983 43.2272L38.0079 38.8831L47.5423 32L51 35.4545Z" fill="#F5D0C7"/>
<path fill-rule="evenodd" clip-rule="evenodd" d="M40.9999 32.5053C41.0025 34.8024 39.0591 36.728 36.5049 36.9593L36.4684 37L31.4458 32.5053L31 32.1064L31.0091 32.0983C31.2438 29.6334 33.6668 27.8063 36.4212 28.0165C39.0217 28.215 41.0153 30.1694 40.9999 32.5053Z" fill="#79DCA0"/>
<path fill-rule="evenodd" clip-rule="evenodd" d="M38 39.5736L32.0666 44L21 38.7201H31.2154V33.44L31.641 33L36.34 37.8576L38 39.5736Z" fill="#03AA6F"/>
<path fill-rule="evenodd" clip-rule="evenodd" d="M29 4C33.4188 4 37 7.35748 37 11.5C37 15.6425 33.4188 19 29 19C24.5813 19 21 15.6425 21 11.5C21 7.35748 24.5823 4 29 4ZM29 15.25C29.6845 15.2584 30.3512 15.0433 30.8844 14.6417C31.3672 14.2842 31.6542 13.7434 31.6667 13.1668C31.6366 12.626 31.2383 12.1651 30.6799 12.0251L28.9999 11.5001V7.75015C28.3154 7.74181 27.6488 7.95686 27.1155 8.35846C26.6328 8.71598 26.3458 9.25678 26.3333 9.83342C26.3634 10.3742 26.7617 10.8351 27.3201 10.9751L29 11.5001V15.25Z" fill="#FFDB6F"/>
<path fill-rule="evenodd" clip-rule="evenodd" d="M31 32.3456L30.5715 32.7604H25.3601C24.9006 30.0479 22.2563 28.209 19.4536 28.6536C17.003 29.0426 15.1893 31.0707 15.1429 33.4737L11.4572 35L4 27.7833L15.1429 17L27.5716 29.0278L30.5802 31.9393L31 32.3456Z" fill="#03AA6F"/>
<path fill-rule="evenodd" clip-rule="evenodd" d="M31 13.7777C30.9859 14.3928 30.663 14.9697 30.1199 15.3509C29.5201 15.7794 28.77 16.0086 28 15.9998V12L29.8901 12.56C30.518 12.7093 30.9659 13.2009 31 13.7777Z" fill="#FFDB6F"/>
<path fill-rule="evenodd" clip-rule="evenodd" d="M29 8.00025V12L27.1101 11.44C26.482 11.2907 26.0341 10.7991 26 10.2223C26.0141 9.60724 26.337 9.03031 26.8799 8.64908C27.4811 8.22062 28.23 7.99135 29 8.00025Z" fill="#FFDB6F"/>
<path fill-rule="evenodd" clip-rule="evenodd" d="M26 33.27H17.6779L16 34C16.0512 31.1877 18.3456 28.9491 21.125 29.0009C23.5553 29.0468 25.6073 30.843 26 33.27Z" fill="#79DCA0"/>
<mask id="mask0_3_360" style="mask-type:luminance" maskUnits="userSpaceOnUse" x="22" y="0" width="13" height="3">
<path fill-rule="evenodd" clip-rule="evenodd" d="M22.07 0.000244141H34.9267V2.96908H22.07V0.000244141Z" fill="white"/>
</mask>
<g mask="url(#mask0_3_360)">
<path fill-rule="evenodd" clip-rule="evenodd" d="M34.0043 2.96908C30.6372 1.08054 26.3596 1.08054 22.9923 2.96908L22.07 1.68563C25.9878 -0.561551 31.009 -0.561551 34.9267 1.68563L34.0043 2.96908Z" fill="#FFDB6F"/>
</g>
<path fill-rule="evenodd" clip-rule="evenodd" d="M17.1039 17C16.3744 15.4157 15.9989 13.7162 16 12H18.052C18.051 13.472 18.3731 14.9291 19 16.2868L17.1039 17Z" fill="#FFDB6F"/>
<path fill-rule="evenodd" clip-rule="evenodd" d="M28 24V22.632C29.4721 22.6327 30.9292 22.418 32.2868 22L33 23.264C31.4157 23.7504 29.7163 24.0007 28 24Z" fill="#FFDB6F"/>
<path fill-rule="evenodd" clip-rule="evenodd" d="M39.896 17L38 16.2868C38.6268 14.9291 38.949 13.4719 38.948 12H41C41.001 13.7162 40.6255 15.4157 39.896 17Z" fill="#FFDB6F"/>
<path fill-rule="evenodd" clip-rule="evenodd" d="M28.4999 4.69992C24.7447 4.69992 21.7 7.7446 21.7 11.5C21.7 15.2554 24.7446 18.3001 28.4999 18.3001C32.2553 18.3001 35.3 15.2554 35.3 11.5C35.2957 7.74632 32.2536 4.70417 28.4999 4.69992ZM28.4999 20C23.8055 20 20 16.1946 20 11.5C20 6.80542 23.8055 3 28.4999 3C33.1945 3 37 6.80542 37 11.5C36.9949 16.1919 33.192 19.9948 28.4999 20Z" fill="#FF8030"/>
<path fill-rule="evenodd" clip-rule="evenodd" d="M28.4999 15.9998C27.6214 16.0088 26.7666 15.7308 26.0841 15.2133C25.4103 14.7063 25.013 13.9459 25 13.1381H26.75C26.7632 13.4602 26.9295 13.7611 27.205 13.9557C27.9786 14.4749 29.0206 14.4749 29.7941 13.9557C30.0699 13.761 30.2369 13.461 30.25 13.1381C30.25 13.0236 30.1231 12.8691 29.8808 12.7947L26.5698 11.7628C25.6633 11.5142 25.0306 10.7498 25 9.86754C25.0131 9.05969 25.4114 8.2985 26.085 7.79234C26.7675 7.27479 27.6215 6.99677 28.5 7.00583C30.3087 6.90277 31.8696 8.17829 32 9.86754H30.25C30.25 9.20279 29.4487 8.6411 28.5 8.6411C28.031 8.63458 27.5743 8.77846 27.2059 9.04995C26.9302 9.24458 26.7632 9.54461 26.7501 9.86754C26.7501 9.982 26.877 10.1365 27.1193 10.2109L30.4303 11.2428C31.3369 11.4914 31.9694 12.2558 32 13.1381C31.9869 13.9459 31.5887 14.7071 30.915 15.2133C30.2333 15.7308 29.3785 16.0088 28.4999 15.9998Z" fill="#FF8030"/>
<mask id="mask1_3_360" style="mask-type:luminance" maskUnits="userSpaceOnUse" x="0" y="0" width="52" height="52">
<path fill-rule="evenodd" clip-rule="evenodd" d="M0 52H52V0H0V52Z" fill="white"/>
</mask>
<g mask="url(#mask1_3_360)">
<path fill-rule="evenodd" clip-rule="evenodd" d="M28 17H30V7H28V17Z" fill="#FF8030"/>
<path fill-rule="evenodd" clip-rule="evenodd" d="M22.9312 3C26.3371 1.09271 30.6629 1.09271 34.0688 3L35 1.70168C31.038 -0.567227 25.962 -0.567227 22 1.70168L22.9312 3Z" fill="black"/>
<path fill-rule="evenodd" clip-rule="evenodd" d="M16 12.0001C15.997 13.7166 16.3735 15.4163 17.106 17L19 16.2837C18.3721 14.9273 18.05 13.4706 18.0519 12H16V12.0001Z" fill="black"/>
<path fill-rule="evenodd" clip-rule="evenodd" d="M28.0001 24C29.7166 24.0027 31.4164 23.7516 33 23.263L32.2814 22C30.9261 22.4188 29.4705 22.6336 28 22.6315L28.0001 24Z" fill="black"/>
<path fill-rule="evenodd" clip-rule="evenodd" d="M39.8946 17C40.6273 15.4163 41.0029 13.7164 41 12H38.9473C38.9502 13.4705 38.6281 14.9271 38 16.2833L39.8946 17Z" fill="black"/>
<path fill-rule="evenodd" clip-rule="evenodd" d="M28.4998 18.3001C24.7446 18.3001 21.6999 15.2554 21.6999 11.5C21.6999 7.7446 24.7445 4.69992 28.4998 4.69992C32.2552 4.69992 35.2999 7.7446 35.2999 11.5C35.2956 15.2537 32.2535 18.2958 28.4998 18.3001ZM37 11.5C37 6.80542 33.1945 3 28.4999 3C23.8055 3 20 6.80542 20 11.5C20 16.1946 23.8055 20 28.4999 20C33.1919 19.9949 36.9948 16.192 37 11.5Z" fill="black"/>
<path fill-rule="evenodd" clip-rule="evenodd" d="M27.1263 10.6859C26.9048 10.6151 26.75 10.4701 26.75 10.3335C26.7955 9.8435 27.1376 9.42432 27.625 9.26259V10.846L27.1263 10.6859ZM29.8737 13.3143C30.0952 13.3851 30.25 13.5301 30.25 13.6667C30.2045 14.1567 29.8624 14.5759 29.375 14.7376V13.1542L29.8737 13.3143ZM30.25 10.3334H32C31.9221 8.92671 30.8319 7.75923 29.375 7.52005V7H27.625V7.52005C26.1681 7.75923 25.0779 8.92671 25 10.3334C25.0341 11.2334 25.6685 12.0109 26.575 12.2658L27.625 12.5991V14.7358C27.1385 14.5742 26.7955 14.1558 26.75 13.6666H25C25.0779 15.0733 26.1681 16.2408 27.625 16.4799V17H29.375V16.4799C30.8319 16.2408 31.9221 15.0733 32 13.6666C31.9659 12.7666 31.3315 11.9891 30.425 11.7342L29.375 11.4009V9.26259C29.8624 9.42422 30.2045 9.8434 30.25 10.3334Z" fill="black"/>
<path fill-rule="evenodd" clip-rule="evenodd" d="M47.1045 31.6297L39.4674 37.0855C41.9002 35.168 42.3015 31.6622 40.3618 29.2562C38.4221 26.8501 34.8785 26.4533 32.4456 28.3716C31.6924 28.9647 31.1058 29.7396 30.7417 30.6217L29.3923 29.2854L39.8669 18.9259L49.9082 28.8568L47.1045 31.6297ZM31.9707 42.4401L24.746 39.1425H31.2002C31.6785 39.1425 32.0667 38.7587 32.0667 38.2855V34.3546L36.7727 39.0089L31.9707 42.4401ZM17.3334 32.2855C17.2156 32.2855 17.0994 32.3085 16.9919 32.3549L16.7814 32.4405C17.6367 30.2446 20.131 29.15 22.3515 29.996C23.4322 30.4083 24.2998 31.2328 24.7591 32.2855H17.3334ZM39.0964 37.3476L38.196 37.9906L38.0842 37.88C38.4386 37.7378 38.7783 37.5602 39.0964 37.3494V37.3476ZM36.6776 36.4906L32.1483 32.0111C32.4768 30.181 34.088 28.8499 35.9669 28.8568C38.1162 28.8525 39.8616 30.5728 39.8653 32.6985C39.8687 34.5586 38.5272 36.1547 36.6776 36.4906ZM15.6 18.0687L29.9748 32.2855H26.6112C25.8519 29.7387 23.4851 27.9919 20.8001 27.9997C17.733 28.0177 15.1555 30.2831 14.7776 33.2935L12.071 34.4402L5.5589 27.9997L15.6 18.0687ZM40.4797 17.1078C40.1417 16.7735 39.5921 16.7735 39.2543 17.1078L28.1669 28.0733L16.2128 16.2507C15.8748 15.9164 15.3253 15.9164 14.9874 16.2507L3.72053 27.3936C3.38257 27.7279 3.38257 28.2713 3.72053 28.6056L10.0411 34.8568H0V36.5711H11.2667C11.3846 36.5711 11.5007 36.5479 11.6082 36.5017L17.5111 33.9997H30.3336V37.4282H20.8C20.3216 37.4282 19.9334 37.8123 19.9334 38.2854C19.9334 38.6196 20.1301 38.924 20.437 39.0637L31.7039 44.2066C31.9873 44.3343 32.3184 44.3018 32.5704 44.1209L47.5804 33.4083L49.8623 35.6652L32.6129 50.2857H27.8886L11.5664 44.3386C11.4703 44.3035 11.3688 44.2856 11.2666 44.2856H0V45.9999H11.1115L27.4336 51.9468C27.53 51.982 27.6313 52 27.7335 52H32.9337C33.1408 52 33.3401 51.9272 33.497 51.7933L51.6972 36.3645C52.0602 36.0569 52.1027 35.5152 51.7917 35.1559C51.7768 35.1398 51.7621 35.1234 51.7465 35.108L48.8925 32.2854L51.7465 29.4626C52.0845 29.1285 52.0845 28.585 51.7465 28.2507L40.4797 17.1078Z" fill="black"/>
</g>
</svg>
