<svg width="42" height="41" viewBox="0 0 42 41" fill="none" xmlns="http://www.w3.org/2000/svg">
<path fill-rule="evenodd" clip-rule="evenodd" d="M32 11H36V3H32V11Z" fill="#627C89"/>
<path fill-rule="evenodd" clip-rule="evenodd" d="M32 5H36V3H32V5Z" fill="#9DA6B1"/>
<path fill-rule="evenodd" clip-rule="evenodd" d="M31 4H37V2H31V4Z" fill="#445C6C"/>
<path fill-rule="evenodd" clip-rule="evenodd" d="M3 13.1145V41H40V13.1145L21.5 2L3 13.1145Z" fill="#F4F4F4"/>
<path fill-rule="evenodd" clip-rule="evenodd" d="M20.3438 0.584385L0.721875 12.5282C0.2625 12.7879 0 13.3072 0 13.8265C0 14.9949 1.3125 15.7089 2.29688 15.1247L21 3.70017L39.7031 15.0598C40.6875 15.644 42 14.93 42 13.7616C42 13.2423 41.7375 12.7879 41.2781 12.4633L21.6562 0.584385C21.2625 0.324736 20.7375 0.324736 20.3438 0.584385Z" fill="#E95C60"/>
<path fill-rule="evenodd" clip-rule="evenodd" d="M12.7818 25.2355C14.3785 20.7364 19.3594 18.3697 23.9086 19.9484C28.4564 21.5277 30.8497 26.4552 29.2531 30.9542C27.6571 35.4533 22.6755 37.8207 18.127 36.2407C13.5785 34.6614 11.1852 29.7345 12.7818 25.2355Z" fill="#FCD66F"/>
<path fill-rule="evenodd" clip-rule="evenodd" d="M21 35.6366C16.8 35.6366 13.3219 32.2618 13.3219 28.0425C13.3219 23.8875 16.7344 20.4478 21 20.4478C25.2 20.4478 28.6781 23.8232 28.6781 28.0425C28.6781 32.2618 25.2 35.6366 21 35.6366Z" fill="#D89832"/>
<path fill-rule="evenodd" clip-rule="evenodd" d="M21 34.5982C17.3906 34.5982 14.4375 31.6771 14.4375 28.107C14.4375 24.5368 17.3906 21.6157 21 21.6157C24.6094 21.6157 27.5625 24.5368 27.5625 28.107C27.5625 31.6771 24.6094 34.5982 21 34.5982Z" fill="#FCD66F"/>
<path fill-rule="evenodd" clip-rule="evenodd" d="M23.1655 29.2753C23.1655 29.5349 23.0999 29.7946 23.0342 30.0542C22.9036 30.249 22.7717 30.4437 22.5755 30.6391C22.378 30.8332 22.1811 30.9636 21.9193 31.0279C21.6561 31.1577 21.3936 31.1577 21.0655 31.2226L20.9342 32.2619V32.3261L20.8686 32.3911H20.7374H20.5405H20.278C20.2124 32.3911 20.1467 32.3911 20.1467 32.3261C20.0811 32.3261 20.0811 32.2619 20.0811 32.2619V32.1314L20.2124 31.1577C20.0811 31.1577 19.9499 31.0928 19.8186 31.0928C19.6874 31.0928 19.5561 31.0279 19.4905 30.9636C19.3592 30.8981 19.2936 30.8981 19.228 30.8332C19.1624 30.7683 19.0967 30.7683 19.0311 30.7033C18.9655 30.6391 18.9655 30.6391 18.9655 30.5086V30.184V29.9244C18.9655 29.8595 18.9655 29.7946 19.0311 29.7297C19.0311 29.6654 19.0967 29.6654 19.0967 29.6654H19.1624C19.228 29.6654 19.2936 29.6654 19.3592 29.7297C19.4249 29.7946 19.5561 29.8595 19.6874 29.8595C19.8186 29.8595 19.9499 29.99 20.1467 29.99C20.3436 30.0542 20.5405 30.0542 20.803 30.0542C21.1967 30.0542 21.4592 29.99 21.6561 29.8595C21.853 29.7297 21.9193 29.5349 21.9193 29.2753C21.9193 29.1454 21.853 29.0163 21.7874 28.8858C21.7217 28.756 21.5905 28.6917 21.4592 28.6261C21.328 28.5612 21.1967 28.4963 20.9999 28.4314C20.803 28.3671 20.6717 28.3016 20.4749 28.2367C20.278 28.1718 20.1467 28.1068 19.9499 27.977C19.753 27.9121 19.6217 27.7823 19.4905 27.6525C19.3592 27.5226 19.228 27.3279 19.1624 27.1332C19.0967 26.9384 19.0311 26.7443 19.0311 26.4198C19.0311 26.1595 19.0967 25.9647 19.1624 25.7707C19.228 25.5753 19.3592 25.3805 19.4905 25.2507C19.6217 25.1215 19.8186 24.9911 20.0811 24.8612C20.3436 24.7314 20.5405 24.7314 20.8686 24.6665L20.9999 23.6928V23.6279L21.0655 23.563H21.1967H21.3936H21.6561C21.7217 23.563 21.7874 23.563 21.7874 23.6279C21.853 23.6279 21.853 23.6928 21.853 23.6928V23.8233L21.7217 24.7314C21.7874 24.7314 21.9193 24.7314 21.9842 24.797C22.1155 24.797 22.1811 24.8612 22.2474 24.8612C22.3124 24.8612 22.4436 24.9261 22.5092 24.9911C22.5755 25.056 22.6405 25.056 22.6405 25.056L22.7061 25.1215C22.7061 25.1215 22.7061 25.1858 22.7717 25.2507V25.3805V25.5753V25.8349V25.9647C22.7717 25.9647 22.7717 26.0297 22.7061 26.0297H22.6405C22.5755 26.0297 22.5092 26.0297 22.4436 25.9647C22.378 25.8998 22.2474 25.8998 22.1155 25.8349C21.9842 25.7707 21.853 25.7707 21.7217 25.7051C21.5905 25.8349 21.3936 25.8349 21.1967 25.8349C20.9999 25.8349 20.8686 25.8349 20.7374 25.8998C20.6061 25.9647 20.5405 25.9647 20.4092 26.0297C20.3436 26.0952 20.278 26.1595 20.2124 26.2244C20.1467 26.2893 20.1467 26.4198 20.1467 26.484C20.1467 26.6139 20.2124 26.7443 20.278 26.8735C20.3436 27.0033 20.4749 27.0689 20.6061 27.1332C20.7374 27.1981 20.8686 27.263 21.0655 27.3279C21.2624 27.3935 21.3936 27.4577 21.5905 27.5226C21.7874 27.5875 21.9193 27.6525 22.1155 27.7823C22.3124 27.8472 22.4436 27.977 22.5755 28.1068C22.7061 28.2367 22.8374 28.4314 22.9036 28.5612C23.0999 28.8209 23.1655 29.0163 23.1655 29.2753Z" fill="#D89832"/>
</svg>
