<svg width="14" height="26" viewBox="0 0 14 26" fill="none" xmlns="http://www.w3.org/2000/svg">
<path fill-rule="evenodd" clip-rule="evenodd" d="M5.13673 26C4.71911 26.0022 4.33447 25.7804 4.13718 25.4236C4.00193 25.1737 3.97744 24.8812 4.06934 24.6134C4.16123 24.3456 4.3616 24.1256 4.62436 24.004C9.02407 21.894 11.7573 17.6789 11.7573 13.0047C11.7573 8.32399 9.02071 4.10727 4.6126 1.99892C4.34963 1.87746 4.14878 1.65779 4.056 1.39019C3.96321 1.12258 3.98645 0.829939 4.12038 0.579238C4.41215 0.0549081 5.081 -0.149866 5.63063 0.116865C10.7913 2.58665 14 7.5246 14 13.0047C14 18.475 10.7964 23.413 5.64239 25.886C5.48535 25.9618 5.31216 26.0008 5.13673 26Z" fill="#4F62C0"/>
<path fill-rule="evenodd" clip-rule="evenodd" d="M2.9966 23C2.62314 23.0007 2.28118 22.7842 2.11271 22.4404C2.00435 22.2206 1.98095 21.9665 2.04724 21.7296C2.12162 21.4598 2.30111 21.2338 2.54296 21.1056C5.30689 19.6519 7.12923 16.738 7.12923 13.5008C7.12923 10.262 5.30221 7.34491 2.53361 5.88956C2.30433 5.77255 2.12989 5.56588 2.04909 5.31551C1.96829 5.06514 1.98782 4.79185 2.10336 4.55642C2.27241 4.21357 2.61437 3.99831 2.98725 4.00001C3.14626 4.00001 3.29903 4.0386 3.44089 4.11097C6.86487 5.90602 9.01555 9.53877 8.99991 13.5008C9.01613 17.4579 6.87005 21.0869 3.4518 22.8826C3.31145 22.959 3.15529 22.9993 2.9966 23Z" fill="#4F62C0"/>
<path fill-rule="evenodd" clip-rule="evenodd" d="M0.958015 18C0.602167 18 0.267048 17.7641 0.109853 17.4002C-0.133713 16.861 0.0545754 16.1988 0.526161 15.9191C1.49006 15.3564 2.08602 14.2376 2.08602 13.0008C2.08602 11.7624 1.48661 10.642 0.524433 10.0792C0.0545753 9.80286 -0.135441 9.13901 0.102943 8.60152C0.268775 8.22915 0.59353 8 0.954561 8C1.10657 8 1.2534 8.03875 1.38987 8.11794C2.99982 9.05981 4 10.9318 4 13.0008C4 15.0699 2.99982 16.9402 1.3916 17.8804C1.26024 17.9565 1.11077 17.9977 0.958015 18Z" fill="#4F62C0"/>
</svg>
