<svg width="24" height="22" viewBox="0 0 24 22" fill="none" xmlns="http://www.w3.org/2000/svg">
<path fill-rule="evenodd" clip-rule="evenodd" d="M11.2255 8.481C11.3292 8.58114 11.4515 8.65965 11.5855 8.712C11.8495 8.82967 12.1505 8.82967 12.4145 8.712C12.5485 8.65965 12.6708 8.58114 12.7745 8.481L15.2727 6.006C15.7125 5.56252 15.7125 4.84348 15.2727 4.4C14.8329 3.95652 14.1198 3.95652 13.68 4.4L13.0909 5.049V1.1C13.0909 0.492487 12.6025 0 12 0C11.3975 0 10.9091 0.492487 10.9091 1.1V5.049L10.32 4.4C9.88018 3.95652 9.16709 3.95652 8.72727 4.4C8.28745 4.84348 8.28745 5.56252 8.72727 6.006L11.2255 8.481ZM8.72727 14.3C8.72727 12.4775 10.1925 11 12 11C13.8075 11 15.2727 12.4775 15.2727 14.3C15.2727 16.1225 13.8075 17.6 12 17.6C10.1925 17.6 8.72727 16.1225 8.72727 14.3ZM10.9091 14.3C10.9091 14.9075 11.3975 15.4 12 15.4C12.6025 15.4 13.0909 14.9075 13.0909 14.3C13.0909 13.6925 12.6025 13.2 12 13.2C11.3975 13.2 10.9091 13.6925 10.9091 14.3ZM18.5455 13.2C19.1479 13.2 19.6364 13.6925 19.6364 14.3C19.6364 14.9075 19.1479 15.4 18.5455 15.4C17.943 15.4 17.4545 14.9075 17.4545 14.3C17.4545 13.6925 17.943 13.2 18.5455 13.2ZM20.7273 6.6H17.4545C16.8521 6.6 16.3636 7.09249 16.3636 7.7C16.3636 8.30751 16.8521 8.8 17.4545 8.8H20.7273C21.3298 8.8 21.8182 9.29249 21.8182 9.9V18.7C21.8182 19.3075 21.3298 19.8 20.7273 19.8H3.27273C2.67023 19.8 2.18182 19.3075 2.18182 18.7V9.9C2.18182 9.29249 2.67023 8.8 3.27273 8.8H6.54545C7.14795 8.8 7.63636 8.30751 7.63636 7.7C7.63636 7.09249 7.14795 6.6 6.54545 6.6H3.27273C1.46525 6.6 0 8.07746 0 9.9V18.7C0 20.5225 1.46525 22 3.27273 22H20.7273C22.5347 22 24 20.5225 24 18.7V9.9C24 8.07746 22.5347 6.6 20.7273 6.6ZM5.45455 15.4C4.85205 15.4 4.36364 14.9075 4.36364 14.3C4.36364 13.6925 4.85205 13.2 5.45455 13.2C6.05704 13.2 6.54545 13.6925 6.54545 14.3C6.54545 14.9075 6.05704 15.4 5.45455 15.4Z" fill="#4F62C0"/>
</svg>
