<svg width="17" height="23" viewBox="0 0 17 23" fill="none" xmlns="http://www.w3.org/2000/svg">
<path fill-rule="evenodd" clip-rule="evenodd" d="M0.988125 3.21694L2.48625 4.75975C5.80125 1.33492 11.1881 1.33492 14.5138 4.75975L16.0119 3.21694C11.8681 -1.07231 5.1425 -1.07231 0.988125 3.21694ZM14.875 9.86965H2.125C0.951395 9.86965 0 10.8494 0 12.058V20.8116C0 22.0202 0.951395 23 2.125 23H14.875C16.0486 23 17 22.0202 17 20.8116V12.058C17 10.8494 16.0486 9.86965 14.875 9.86965ZM14.875 20.8116H2.125V16.4348H14.875V20.8116ZM2.125 14.2464H14.875V12.058H2.125V14.2464ZM5.49312 7.85633L3.995 6.31351C6.48395 3.7535 10.5161 3.7535 13.005 6.31351L11.5069 7.85633C9.84482 6.14962 7.15518 6.14962 5.49312 7.85633Z" fill="#4F62C0"/>
</svg>
