<svg width="18" height="23" viewBox="0 0 18 23" fill="none" xmlns="http://www.w3.org/2000/svg">
<path fill-rule="evenodd" clip-rule="evenodd" d="M5.90295 8.98096C5.90295 7.3241 7.2461 5.98096 8.90295 5.98096C10.5589 5.98316 11.9008 7.32502 11.903 8.98096C11.903 10.6378 10.5598 11.981 8.90295 11.981C7.2461 11.981 5.90295 10.6378 5.90295 8.98096ZM7.51713 9.55498C7.74931 10.1155 8.29626 10.481 8.90295 10.481C9.73092 10.4799 10.4019 9.80893 10.403 8.98096C10.403 8.37426 10.0375 7.82731 9.47698 7.59514C8.91647 7.36297 8.27129 7.4913 7.84229 7.9203C7.4133 8.34929 7.28496 8.99447 7.51713 9.55498Z" fill="#A5E8F0"/>
<path fill-rule="evenodd" clip-rule="evenodd" d="M8.90198 0.823975C13.107 0.823975 16.568 4.00697 17.011 8.12997L17.0106 8.13036C17.0383 8.40689 17.053 8.68709 17.053 8.97097C17.0574 10.5535 16.5981 12.1026 15.732 13.427L10.064 22.128L10.061 22.133C9.80293 22.5233 9.3658 22.7576 8.89787 22.7564C8.42994 22.7552 7.99402 22.5186 7.73798 22.127L2.06998 13.426L2.08898 13.457C0.441687 10.9523 0.301847 7.74557 1.72485 5.10697C3.14785 2.46836 5.90412 0.823544 8.90198 0.823975ZM8.90298 21.164L14.477 12.607C16.181 9.96923 15.8189 6.50098 13.607 4.27197C12.403 3.06797 10.74 2.32297 8.90298 2.32297C7.06598 2.32297 5.40298 3.06797 4.19898 4.27197C1.98703 6.50098 1.62502 9.96923 3.32898 12.607L8.90298 21.164Z" fill="#A5E8F0"/>
</svg>
