<svg width="53" height="41" viewBox="0 0 53 41" fill="none" xmlns="http://www.w3.org/2000/svg">
<path fill-rule="evenodd" clip-rule="evenodd" d="M49.6797 38.4598V34.6272H48.7542V36.8555C48.4458 36.4544 48.0051 36.2315 47.4322 36.2315C46.2424 36.2315 45.317 37.1674 45.317 38.4598C45.317 39.7522 46.2424 40.6881 47.4322 40.6881C48.0492 40.6881 48.4898 40.4652 48.7542 40.0642V40.5989H49.6797V38.4598ZM22.3576 36.3207H23.8559V37.1674H22.3576V39.0837C22.3576 39.5294 22.5339 39.7968 22.9746 39.7968C23.1949 39.7968 23.5034 39.7522 23.7678 39.5739L24.0322 40.3761C23.7237 40.5544 23.2831 40.6881 22.8864 40.6881C21.8288 40.6881 21.4322 40.1087 21.4322 39.1283V37.1674H20.5949V36.3207H21.4322V35.0283H22.3576V36.3207ZM10.1509 37.925V40.5989H9.13729V38.237C9.13729 37.5239 8.82882 37.1228 8.21187 37.1228C7.63899 37.1228 7.19831 37.4794 7.19831 38.237V40.5989H6.27288V38.237C6.27288 37.5239 5.96441 37.1228 5.34746 37.1228C4.73051 37.1228 4.3339 37.4794 4.3339 38.237V40.5989H3.40848V36.3207H4.3339V36.8555C4.68644 36.3652 5.12712 36.2315 5.5678 36.2315C6.22882 36.2315 6.66949 36.4989 6.97797 36.9892C7.37458 36.4098 7.94746 36.2315 8.47627 36.2315C9.5339 36.2315 10.1509 36.9 10.1509 37.925ZM31.7 36.2315C31.1712 36.2315 30.8186 36.4989 30.5983 36.8555V36.3207H29.6729V40.5989H30.5983V38.1924C30.5983 37.4794 30.9068 37.0783 31.4797 37.0783C31.6559 37.0783 31.8763 37.1228 32.0525 37.1674L32.317 36.2761C32.1407 36.2315 31.8763 36.2315 31.7 36.2315ZM18.1271 36.2315C18.7881 36.2315 19.4051 36.3652 19.8458 36.6772L19.4492 37.4348C19.1847 37.3011 18.6559 37.0783 18.1271 37.0783C17.6424 37.0783 17.3339 37.2565 17.3339 37.5685C17.3339 37.8359 17.6424 37.925 18.039 37.9696L18.4797 38.0142C19.361 38.1478 19.9339 38.5489 19.9339 39.3065C19.9339 40.1087 19.2288 40.6881 17.9949 40.6881C17.3339 40.6881 16.6729 40.5098 16.1881 40.1533L16.6288 39.4402C16.9373 39.6631 17.422 39.8859 18.039 39.8859C18.6559 39.8859 19.0085 39.6631 19.0085 39.3511C19.0085 39.1283 18.7441 38.9946 18.2593 38.9055L17.8186 38.8609C16.8932 38.7272 16.3644 38.3261 16.3644 37.6131C16.3644 36.7663 17.0695 36.2315 18.1271 36.2315ZM44.4356 36.2315C43.9068 36.2315 43.5542 36.4989 43.3339 36.8555V36.3207H42.4085V40.5989H43.3339V38.1924C43.3339 37.4794 43.6424 37.0783 44.2153 37.0783C44.3915 37.0783 44.6119 37.1228 44.7881 37.1674L45.0525 36.2761C44.8763 36.2315 44.6119 36.2315 44.4356 36.2315ZM34.8729 40.6881C33.5068 40.6881 32.6254 39.7522 32.6254 38.4598C32.6254 37.1674 33.5068 36.2315 34.8729 36.2315C35.4898 36.2315 35.9305 36.3652 36.3712 36.7218L35.9305 37.4794C35.578 37.212 35.2254 37.0783 34.8288 37.0783C34.0797 37.1228 33.5509 37.6576 33.5509 38.4598C33.5509 39.3065 34.0797 39.8413 34.8288 39.8413C35.2254 39.8413 35.578 39.7076 35.9305 39.4402L36.3712 40.1978C35.9305 40.5544 35.4898 40.6881 34.8729 40.6881ZM41.1746 38.4598V36.3207H40.2492V36.8555C39.9407 36.4544 39.5 36.2315 38.9271 36.2315C37.7373 36.2315 36.8119 37.1674 36.8119 38.4598C36.8119 39.7522 37.7373 40.6881 38.9271 40.6881C39.5441 40.6881 39.9847 40.4652 40.2492 40.0642V40.5989H41.1746V38.4598ZM39.0593 37.0783C38.2661 37.0783 37.7814 37.7022 37.7814 38.4598C37.7814 39.2174 38.2661 39.7968 39.0593 39.8413C39.8085 39.8413 40.3373 39.2174 40.3373 38.4598C40.3373 37.6576 39.8085 37.0783 39.0593 37.0783ZM26.7203 36.2315C25.4864 36.2315 24.6051 37.1228 24.6051 38.4598C24.6051 39.7968 25.4864 40.6881 26.7644 40.6881C27.3814 40.6881 27.9983 40.5098 28.4831 40.1087L28.0424 39.4402C27.6898 39.7076 27.2492 39.8859 26.8085 39.8859C26.2356 39.8859 25.6627 39.6185 25.5305 38.8609H28.6593V38.5044C28.7034 37.1228 27.9102 36.2315 26.7203 36.2315ZM27.778 38.0587C27.6898 37.3902 27.2932 37.0337 26.7203 37.0337C26.0593 37.0337 25.6627 37.4794 25.5746 38.0587H27.778ZM47.5644 37.0783C46.7712 37.0783 46.2864 37.7022 46.2864 38.4598C46.2864 39.2174 46.7712 39.7968 47.5644 39.8413C48.3136 39.8413 48.8424 39.2174 48.8424 38.4598C48.8424 37.6576 48.3136 37.0783 47.5644 37.0783ZM15.3509 38.4598V36.3207H14.4254V36.8555C14.117 36.4544 13.6763 36.2315 13.1034 36.2315C11.9136 36.2315 10.9881 37.1674 10.9881 38.4598C10.9881 39.7522 11.9136 40.6881 13.1034 40.6881C13.7203 40.6881 14.161 40.4652 14.4254 40.0642V40.5989H15.3509V38.4598ZM13.1915 37.0783C12.3983 37.0783 11.9136 37.7022 11.9136 38.4598C11.9136 39.2174 12.3983 39.7968 13.1915 39.8413C13.9407 39.8413 14.4695 39.2174 14.4695 38.4598C14.4695 37.6576 13.9407 37.0783 13.1915 37.0783Z" fill="black"/>
<path d="M19.5373 3.83252H33.4186V29.0564H19.5373V3.83252Z" fill="#FF5F00"/>
<path d="M20.4186 16.4446C20.4186 11.3196 22.7983 6.77395 26.4559 3.83264C23.7678 1.69351 20.3746 0.401123 16.6729 0.401123C7.90339 0.401123 0.808472 7.57612 0.808472 16.4446C0.808472 25.3131 7.90339 32.4881 16.6729 32.4881C20.3746 32.4881 23.7678 31.1957 26.4559 29.0566C22.7983 26.1598 20.4186 21.5696 20.4186 16.4446Z" fill="#EB001B"/>
<path d="M52.1475 16.4446C52.1475 25.3131 45.0525 32.4881 36.2831 32.4881C32.5814 32.4881 29.1881 31.1957 26.5 29.0566C30.2017 26.1153 32.5373 21.5696 32.5373 16.4446C32.5373 11.3196 30.1576 6.77395 26.5 3.83264C29.1881 1.69351 32.5814 0.401123 36.2831 0.401123C45.0525 0.401123 52.1475 7.62069 52.1475 16.4446Z" fill="#F79E1B"/>
</svg>
