<svg width="107" height="140" viewBox="0 0 107 140" fill="none" xmlns="http://www.w3.org/2000/svg">
<g opacity="0.317011">
<path d="M26 63V79.3333C26 81.9117 28.0822 84 30.6531 84H135.347C137.918 84 140 81.9117 140 79.3333V18.6667C140 16.0883 137.918 14 135.347 14H133.02L135.347 0L116.735 14H30.6531C28.0822 14 26 16.0883 26 18.6667V49" fill="#4F62C0"/>
<path d="M114 77V60.6667C114 58.0883 111.918 56 109.347 56H4.65306C2.08225 56 0 58.0883 0 60.6667V121.333C0 123.912 2.08225 126 4.65306 126H6.97959L4.65306 140L23.2653 126H109.347C111.918 126 114 123.912 114 121.333V91" fill="#A5E8F0"/>
<path d="M7 114.381H11.6667V119H7V114.381Z" fill="white"/>
<path d="M16.3334 114.381H21V119H16.3334V114.381Z" fill="white"/>
<path d="M25.6666 114.381H30.3333V119H25.6666V114.381Z" fill="white"/>
</g>
</svg>
