<svg width="62" height="20" viewBox="0 0 62 20" fill="none" xmlns="http://www.w3.org/2000/svg">
<path fill-rule="evenodd" clip-rule="evenodd" d="M40 7.73061C38.25 6.88061 37.17 6.30061 37.18 5.44061C37.19 4.58061 38.09 3.85061 40.06 3.85061C41.353 3.81561 42.639 4.05761 43.83 4.56061L44.29 4.77061L44.97 0.770612C43.524 0.246612 41.997 -0.0143883 40.46 0.000611674C35.46 0.000611674 31.97 2.50061 31.94 6.10061C31.94 8.75061 34.44 10.2406 36.35 11.1006C38.26 11.9596 39 12.5896 39 13.4006C39 14.6406 37.43 15.2096 36 15.2096C34.364 15.2486 32.741 14.9056 31.26 14.2096L30.61 13.9106L29.9 18.0496C31.697 18.7206 33.602 19.0596 35.52 19.0496C40.81 19.0496 44.25 16.5706 44.29 12.7306C44.28 10.6506 42.94 9.05061 40 7.73061ZM51.71 12.2406C52.13 11.1806 53.71 7.07061 53.71 7.07061C53.71 7.07061 54.13 6.01061 54.38 5.31061L54.73 6.90061L55.89 12.2406H51.71ZM57.92 0.320612H54C52.872 0.173612 51.787 0.806612 51.36 1.86061L43.91 18.7996H49.2C49.2 18.7996 50.06 16.5206 50.26 16.0206H56.71C56.86 16.6606 57.32 18.7806 57.32 18.7806H62L57.92 0.320612ZM24.83 0.320612L21.68 18.8206H26.68L29.84 0.320612H24.83ZM17.45 0.320612L12.51 12.9306L12 11.0306C10.39 7.89961 7.974 5.25461 5 3.37061L9.51 18.7806H14.84L22.78 0.320612H17.45ZM11.77 9.81061L10.08 1.64061C9.834 0.653612 8.888 0.00861167 7.88 0.140612H0.06L0 0.530612C6.08 1.99061 10.1 5.53061 11.77 9.81061Z" fill="#273991"/>
</svg>
